<svg class="animated" id="freepik_stories-cloud-hosting" xmlns="http://www.w3.org/2000/svg" xmlns:xlink="http://www.w3.org/1999/xlink" viewBox="0 0 500 500" version="1.1" xmlns:svgjs="http://svgjs.com/svgjs"><style>svg#freepik_stories-cloud-hosting:not(.animated) .animable {opacity: 0;}svg#freepik_stories-cloud-hosting.animated #freepik--Cloud--inject-104 {animation: 1.5s Infinite  linear floating;animation-delay: 0s;}            @keyframes floating {                0% {                    opacity: 1;                    transform: translateY(0px);                }                50% {                    transform: translateY(-10px);                }                100% {                    opacity: 1;                    transform: translateY(0px);                }            }        .animator-hidden { display: none; }</style><g id="freepik--background-complete--inject-104" style="transform-origin: 250px 226.869995px;" class="animable animator-hidden"><rect y="382.4" width="500" height="0.25" style="fill: rgb(235, 235, 235); transform-origin: 250px 382.525px;" id="elaiqizjy5d4r" class="animable"></rect><rect x="394.67" y="398.49" width="55.23" height="0.25" style="fill: rgb(235, 235, 235); transform-origin: 422.285px 398.615px;" id="elpg3zd1pb92g" class="animable"></rect><rect x="321.81" y="393.25" width="8.69" height="0.25" style="fill: rgb(235, 235, 235); transform-origin: 326.155px 393.375px;" id="elmm2t792x92l" class="animable"></rect><rect x="372.47" y="389.21" width="19.19" height="0.25" style="fill: rgb(235, 235, 235); transform-origin: 382.065px 389.335px;" id="el7bczlk3yvd" class="animable"></rect><rect x="52.46" y="390.89" width="43.19" height="0.25" style="fill: rgb(235, 235, 235); transform-origin: 74.055px 391.015px;" id="eloldx7q7fwya" class="animable"></rect><rect x="215.33" y="397.35" width="45.72" height="0.25" style="fill: rgb(235, 235, 235); transform-origin: 238.19px 397.475px;" id="elonvk42mv68m" class="animable"></rect><rect x="140.46" y="393.12" width="93.68" height="0.25" style="fill: rgb(235, 235, 235); transform-origin: 187.3px 393.245px;" id="el5yrb65defzh" class="animable"></rect><path d="M242.72,332.09A5.71,5.71,0,0,1,237,337.8H43.91a5.71,5.71,0,0,1-5.7-5.71V60.66A5.71,5.71,0,0,1,43.91,55H237a5.71,5.71,0,0,1,5.71,5.71m-.25,0A5.47,5.47,0,0,0,237,55.2H43.91a5.46,5.46,0,0,0-5.45,5.46V332.09a5.46,5.46,0,0,0,5.45,5.46H237a5.47,5.47,0,0,0,5.46-5.46" style="fill: rgb(235, 235, 235); transform-origin: 140.465004px 196.400009px;" id="elz0pcqj35gch" class="animable"></path><path d="M453.31,337.8H260.21a5.72,5.72,0,0,1-5.71-5.71V60.66A5.72,5.72,0,0,1,260.21,55h193.1A5.71,5.71,0,0,1,459,60.66V332.09A5.71,5.71,0,0,1,453.31,337.8ZM260.21,55.2a5.47,5.47,0,0,0-5.46,5.46V332.09a5.47,5.47,0,0,0,5.46,5.46h193.1a5.47,5.47,0,0,0,5.46-5.46V60.66a5.47,5.47,0,0,0-5.46-5.46Z" style="fill: rgb(235, 235, 235); transform-origin: 356.75px 196.399994px;" id="el4p2715v5cut" class="animable"></path><path d="M193.15,147.56a28.41,28.41,0,0,0-39.06-26.11,34.35,34.35,0,0,0-64.4,7.6,29.56,29.56,0,0,0,1.93,59h94.07a21,21,0,0,0,7.46-40.54Z" style="fill: rgb(224, 224, 224); transform-origin: 134.58593px 145.1064px;" id="eli7oqlr4zwz" class="animable"></path><path d="M434,284A28.41,28.41,0,0,0,395,257.89a34.35,34.35,0,0,0-64.4,7.6,29.56,29.56,0,0,0,1.93,59.06h94.07A21,21,0,0,0,434,284Z" style="fill: rgb(245, 245, 245); transform-origin: 375.130051px 281.576431px;" id="eli3lqzkwngkn" class="animable"></path><path d="M344,191.86a14.75,14.75,0,0,0-20.26-13.55,17.81,17.81,0,0,0-33.4,3.95,15.33,15.33,0,0,0,1,30.63h48.79a10.87,10.87,0,0,0,3.87-21Z" style="fill: rgb(224, 224, 224); transform-origin: 313.448532px 190.594742px;" id="elecxy98teank" class="animable"></path><path d="M412.77,103.83A19.49,19.49,0,0,0,386,85.93a23.54,23.54,0,0,0-44.13,5.21,20.26,20.26,0,0,0,1.32,40.47h64.46a14.36,14.36,0,0,0,5.12-27.78Z" style="fill: rgb(235, 235, 235); transform-origin: 372.525085px 102.16378px;" id="elhedk9zwgr1j" class="animable"></path><path d="M206.09,275.22a19.47,19.47,0,0,0-26.77-17.89,23.53,23.53,0,0,0-44.12,5.2A20.26,20.26,0,0,0,136.51,303H201a14.36,14.36,0,0,0,5.12-27.78Z" style="fill: rgb(245, 245, 245); transform-origin: 165.864902px 273.554222px;" id="elrert29mg06" class="animable"></path><path d="M131,175.06a.51.51,0,0,1-.35-.15.42.42,0,0,1-.11-.16.43.43,0,0,1,0-.19.48.48,0,0,1,0-.2.42.42,0,0,1,.11-.16.53.53,0,0,1,.54-.11.64.64,0,0,1,.16.11.49.49,0,0,1,.15.36.43.43,0,0,1,0,.19.42.42,0,0,1-.11.16A.51.51,0,0,1,131,175.06Z" style="fill: rgb(224, 224, 224); transform-origin: 131.019989px 174.559608px;" id="elw3toxu741i" class="animable"></path><path d="M130.5,196.6a.5.5,0,0,1,.5-.5h0a.5.5,0,0,1,.5.5h0a.5.5,0,0,1-.5.5h0A.5.5,0,0,1,130.5,196.6Zm0-5.51a.5.5,0,0,1,.5-.5h0a.5.5,0,0,1,.5.5h0a.5.5,0,0,1-.5.5h0A.51.51,0,0,1,130.5,191.09Zm0-5.51a.5.5,0,0,1,.5-.5h0a.5.5,0,0,1,.5.5h0a.5.5,0,0,1-.5.5h0A.51.51,0,0,1,130.5,185.58Zm0-5.51a.5.5,0,0,1,.5-.5h0a.5.5,0,0,1,.5.5h0a.5.5,0,0,1-.5.5h0A.51.51,0,0,1,130.5,180.07Z" style="fill: rgb(224, 224, 224); transform-origin: 131px 188.335014px;" id="elj0dfji7bohc" class="animable"></path><path d="M131,202.61a.43.43,0,0,1-.19,0,.53.53,0,0,1-.27-.27.41.41,0,0,1,0-.19.43.43,0,0,1,0-.19.36.36,0,0,1,.11-.16.46.46,0,0,1,.16-.11.5.5,0,0,1,.38,0,.46.46,0,0,1,.16.11.36.36,0,0,1,.11.16.43.43,0,0,1,0,.19.47.47,0,0,1-.15.35.36.36,0,0,1-.16.11A.41.41,0,0,1,131,202.61Z" style="fill: rgb(224, 224, 224); transform-origin: 130.999741px 202.136559px;" id="elm3jeywtgrc" class="animable"></path><path d="M222.17,202.11a.5.5,0,0,1,.49-.5h0a.51.51,0,0,1,.51.5h0a.5.5,0,0,1-.51.5h0A.49.49,0,0,1,222.17,202.11Zm-6.11,0a.5.5,0,0,1,.5-.5h0a.5.5,0,0,1,.49.5h0a.49.49,0,0,1-.49.5h0A.5.5,0,0,1,216.06,202.11Zm-6.11,0a.5.5,0,0,1,.5-.5h0a.51.51,0,0,1,.5.5h0a.5.5,0,0,1-.5.5h0A.5.5,0,0,1,210,202.11Zm-6.12,0a.51.51,0,0,1,.5-.5h0a.5.5,0,0,1,.5.5h0a.5.5,0,0,1-.5.5h0A.5.5,0,0,1,203.83,202.11Zm-6.11,0a.51.51,0,0,1,.5-.5h0a.5.5,0,0,1,.5.5h0a.5.5,0,0,1-.5.5h0A.5.5,0,0,1,197.72,202.11Zm-6.11,0a.5.5,0,0,1,.5-.5h0a.5.5,0,0,1,.5.5h0a.5.5,0,0,1-.5.5h0A.5.5,0,0,1,191.61,202.11Zm-6.11,0a.5.5,0,0,1,.5-.5h0a.5.5,0,0,1,.5.5h0a.5.5,0,0,1-.5.5h0A.5.5,0,0,1,185.5,202.11Zm-6.11,0a.5.5,0,0,1,.5-.5h0a.51.51,0,0,1,.5.5h0a.5.5,0,0,1-.5.5h0A.5.5,0,0,1,179.39,202.11Zm-6.11,0a.5.5,0,0,1,.5-.5h0a.51.51,0,0,1,.5.5h0a.5.5,0,0,1-.5.5h0A.5.5,0,0,1,173.28,202.11Zm-6.11,0a.5.5,0,0,1,.5-.5h0a.51.51,0,0,1,.5.5h0a.5.5,0,0,1-.5.5h0A.5.5,0,0,1,167.17,202.11Zm-6.12,0a.51.51,0,0,1,.5-.5h0a.51.51,0,0,1,.51.5h0a.5.5,0,0,1-.51.5h0A.5.5,0,0,1,161.05,202.11Zm-6.1,0a.5.5,0,0,1,.5-.5h0a.5.5,0,0,1,.49.5h0a.49.49,0,0,1-.49.5h0A.5.5,0,0,1,155,202.11Zm-6.12,0a.51.51,0,0,1,.5-.5h0a.5.5,0,0,1,.5.5h0a.5.5,0,0,1-.5.5h0A.5.5,0,0,1,148.83,202.11Zm-6.11,0a.51.51,0,0,1,.5-.5h0a.5.5,0,0,1,.5.5h0a.5.5,0,0,1-.5.5h0A.5.5,0,0,1,142.72,202.11Zm-6.11,0a.51.51,0,0,1,.5-.5h0a.5.5,0,0,1,.5.5h0a.5.5,0,0,1-.5.5h0A.5.5,0,0,1,136.61,202.11Z" style="fill: rgb(224, 224, 224); transform-origin: 179.890007px 202.110008px;" id="elxyek2kd06r" class="animable"></path><path d="M228.78,202.61a.41.41,0,0,1-.19,0,.45.45,0,0,1-.17-.11.44.44,0,0,1-.1-.16.41.41,0,0,1,0-.19.55.55,0,0,1,.14-.35.45.45,0,0,1,.17-.11.5.5,0,0,1,.38,0,.36.36,0,0,1,.16.11.5.5,0,0,1,.15.35.51.51,0,0,1-.15.35.36.36,0,0,1-.16.11A.43.43,0,0,1,228.78,202.61Z" style="fill: rgb(224, 224, 224); transform-origin: 228.814407px 202.139069px;" id="elezr2m49427" class="animable"></path><path d="M228.28,196.16a.5.5,0,0,1,.5-.5h0a.5.5,0,0,1,.5.5h0a.51.51,0,0,1-.5.5h0A.5.5,0,0,1,228.28,196.16Zm0-6a.5.5,0,0,1,.5-.5h0a.5.5,0,0,1,.5.5h0a.5.5,0,0,1-.5.5h0A.5.5,0,0,1,228.28,190.2Zm0-6a.5.5,0,0,1,.5-.5h0a.51.51,0,0,1,.5.5h0a.5.5,0,0,1-.5.5h0A.5.5,0,0,1,228.28,184.24Zm0-6a.5.5,0,0,1,.5-.5h0a.5.5,0,0,1,.5.5h0a.5.5,0,0,1-.5.5h0A.5.5,0,0,1,228.28,178.29Zm0-6a.5.5,0,0,1,.5-.5h0a.51.51,0,0,1,.5.5h0a.5.5,0,0,1-.5.5h0A.5.5,0,0,1,228.28,172.33Zm0-6a.5.5,0,0,1,.5-.5h0a.5.5,0,0,1,.5.5h0a.51.51,0,0,1-.5.5h0A.5.5,0,0,1,228.28,166.38Zm0-6a.5.5,0,0,1,.5-.5h0a.51.51,0,0,1,.5.5h0a.5.5,0,0,1-.5.5h0A.5.5,0,0,1,228.28,160.42Zm0-5.95a.5.5,0,0,1,.5-.5h0a.5.5,0,0,1,.5.5h0a.51.51,0,0,1-.5.5h0A.5.5,0,0,1,228.28,154.47Zm0-6a.5.5,0,0,1,.5-.5h0a.5.5,0,0,1,.5.5h0a.5.5,0,0,1-.5.5h0A.5.5,0,0,1,228.28,148.51Z" style="fill: rgb(224, 224, 224); transform-origin: 228.779991px 172.185013px;" id="el7cdu5kr1ch7" class="animable"></path><path d="M228.78,143.06a.58.58,0,0,1-.19,0l-.17-.11a.54.54,0,0,1-.1-.16.43.43,0,0,1,0-.19.48.48,0,0,1,0-.2.54.54,0,0,1,.1-.16l.17-.11a.5.5,0,0,1,.38,0,.64.64,0,0,1,.16.11.55.55,0,0,1,.15.36.51.51,0,0,1-.5.5Z" style="fill: rgb(224, 224, 224); transform-origin: 228.79467px 142.596237px;" id="el8gasxr5ioh" class="animable"></path><path d="M366,142.56a.5.5,0,0,1,.5-.51h0a.51.51,0,0,1,.5.51h0a.51.51,0,0,1-.5.5h0A.5.5,0,0,1,366,142.56Zm-6,0a.5.5,0,0,1,.5-.51h0a.5.5,0,0,1,.5.51h0a.5.5,0,0,1-.5.5h0A.5.5,0,0,1,360,142.56Zm-6,0a.51.51,0,0,1,.5-.51h0a.5.5,0,0,1,.5.51h0a.5.5,0,0,1-.5.5h0A.51.51,0,0,1,354,142.56Zm-6,0a.5.5,0,0,1,.5-.51h0a.5.5,0,0,1,.49.51h0a.5.5,0,0,1-.49.5h0A.5.5,0,0,1,348,142.56Zm-6,0a.5.5,0,0,1,.5-.51h0a.51.51,0,0,1,.5.51h0a.51.51,0,0,1-.5.5h0A.5.5,0,0,1,342,142.56Zm-6,0a.5.5,0,0,1,.5-.51h0a.5.5,0,0,1,.5.51h0a.5.5,0,0,1-.5.5h0A.5.5,0,0,1,336.05,142.56Zm-6,0a.51.51,0,0,1,.5-.51h0a.5.5,0,0,1,.5.51h0a.5.5,0,0,1-.5.5h0A.51.51,0,0,1,330.06,142.56Zm-6,0a.5.5,0,0,1,.5-.51h0a.51.51,0,0,1,.5.51h0a.51.51,0,0,1-.5.5h0A.5.5,0,0,1,324.08,142.56Zm-6,0a.5.5,0,0,1,.5-.51h0a.51.51,0,0,1,.5.51h0a.51.51,0,0,1-.5.5h0A.5.5,0,0,1,318.09,142.56Zm-6,0a.51.51,0,0,1,.5-.51h0a.5.5,0,0,1,.5.51h0a.5.5,0,0,1-.5.5h0A.51.51,0,0,1,312.1,142.56Zm-6,0a.51.51,0,0,1,.51-.51h0a.5.5,0,0,1,.49.51h0a.5.5,0,0,1-.49.5h0A.51.51,0,0,1,306.11,142.56Zm-6,0a.5.5,0,0,1,.5-.51h0a.51.51,0,0,1,.5.51h0a.51.51,0,0,1-.5.5h0A.5.5,0,0,1,300.13,142.56Zm-6,0a.5.5,0,0,1,.5-.51h0a.5.5,0,0,1,.5.51h0a.5.5,0,0,1-.5.5h0A.5.5,0,0,1,294.14,142.56Zm-6,0a.51.51,0,0,1,.5-.51h0a.5.5,0,0,1,.5.51h0a.5.5,0,0,1-.5.5h0A.51.51,0,0,1,288.15,142.56Zm-6,0a.51.51,0,0,1,.5-.51h0a.51.51,0,0,1,.51.51h0a.51.51,0,0,1-.51.5h0A.51.51,0,0,1,282.16,142.56Zm-6,0a.5.5,0,0,1,.5-.51h0a.51.51,0,0,1,.5.51h0a.51.51,0,0,1-.5.5h0A.5.5,0,0,1,276.18,142.56Zm-6,0a.5.5,0,0,1,.5-.51h0a.51.51,0,0,1,.5.51h0a.51.51,0,0,1-.5.5h0A.5.5,0,0,1,270.19,142.56Zm-6,0a.51.51,0,0,1,.5-.51h0a.5.5,0,0,1,.5.51h0a.5.5,0,0,1-.5.5h0A.51.51,0,0,1,264.2,142.56Zm-6,0a.5.5,0,0,1,.5-.51h0a.5.5,0,0,1,.49.51h0a.5.5,0,0,1-.49.5h0A.5.5,0,0,1,258.22,142.56Zm-6,0a.5.5,0,0,1,.5-.51h0a.51.51,0,0,1,.5.51h0a.51.51,0,0,1-.5.5h0A.5.5,0,0,1,252.23,142.56Zm-6,0a.5.5,0,0,1,.5-.51h0a.5.5,0,0,1,.5.51h0a.5.5,0,0,1-.5.5h0A.5.5,0,0,1,246.24,142.56Zm-6,0a.51.51,0,0,1,.5-.51h0a.5.5,0,0,1,.5.51h0a.5.5,0,0,1-.5.5h0A.51.51,0,0,1,240.25,142.56Zm-6,0a.5.5,0,0,1,.5-.51h0a.51.51,0,0,1,.5.51h0a.51.51,0,0,1-.5.5h0A.5.5,0,0,1,234.27,142.56Z" style="fill: rgb(224, 224, 224); transform-origin: 300.499969px 142.554993px;" id="elmm9e3jxqafc" class="animable"></path><path d="M372.48,143.06a.5.5,0,0,1-.5-.5.54.54,0,0,1,.14-.36.91.91,0,0,1,.16-.11.52.52,0,0,1,.55.11.71.71,0,0,1,.11.17.58.58,0,0,1,0,.19.5.5,0,0,1-.14.35A.51.51,0,0,1,372.48,143.06Z" style="fill: rgb(224, 224, 224); transform-origin: 372.463928px 142.557182px;" id="el3t6f6v0ovvp" class="animable"></path><path d="M372,136.78a.5.5,0,0,1,.5-.49h0a.5.5,0,0,1,.51.49h0a.5.5,0,0,1-.51.5h0A.5.5,0,0,1,372,136.78Zm0-5.77a.51.51,0,0,1,.5-.5h0a.51.51,0,0,1,.51.5h0a.51.51,0,0,1-.51.51h0A.51.51,0,0,1,372,131Zm0-5.77a.51.51,0,0,1,.5-.5h0a.51.51,0,0,1,.51.5h0a.5.5,0,0,1-.51.5h0A.5.5,0,0,1,372,125.24Zm0-5.77a.51.51,0,0,1,.5-.5h0a.51.51,0,0,1,.51.5h0a.5.5,0,0,1-.51.5h0A.5.5,0,0,1,372,119.47Zm0-5.77a.51.51,0,0,1,.5-.5h0a.51.51,0,0,1,.51.5h0a.5.5,0,0,1-.51.5h0A.5.5,0,0,1,372,113.7Zm0-5.77a.51.51,0,0,1,.5-.5h0a.51.51,0,0,1,.51.5h0a.5.5,0,0,1-.51.5h0A.5.5,0,0,1,372,107.93Z" style="fill: rgb(224, 224, 224); transform-origin: 372.504944px 122.355px;" id="el43ju5lhspfy" class="animable"></path><path d="M372.48,102.66a.49.49,0,0,1-.36-.15.5.5,0,0,1-.14-.35.58.58,0,0,1,0-.19.64.64,0,0,1,.11-.16.51.51,0,0,1,.71,0,.5.5,0,0,1,.14.35.58.58,0,0,1,0,.19.64.64,0,0,1-.11.16.42.42,0,0,1-.16.11A.43.43,0,0,1,372.48,102.66Z" style="fill: rgb(224, 224, 224); transform-origin: 372.460022px 102.163116px;" id="elmymd5pmart" class="animable"></path><path d="M165.8,290.83a.51.51,0,0,1-.36-.14.5.5,0,0,1-.11-.17.58.58,0,0,1,0-.19.51.51,0,0,1,.15-.35.53.53,0,0,1,.55-.11.57.57,0,0,1,.16.11.5.5,0,0,1,.14.35.58.58,0,0,1,0,.19.71.71,0,0,1-.11.17.54.54,0,0,1-.16.1A.43.43,0,0,1,165.8,290.83Z" style="fill: rgb(224, 224, 224); transform-origin: 165.830002px 290.335907px;" id="el4frz36lbevb" class="animable"></path><path d="M165.3,314.87a.5.5,0,0,1,.5-.5h0a.49.49,0,0,1,.49.5h0a.5.5,0,0,1-.49.5h0A.5.5,0,0,1,165.3,314.87Zm0-6.14a.5.5,0,0,1,.5-.5h0a.5.5,0,0,1,.49.5h0a.49.49,0,0,1-.49.5h0A.5.5,0,0,1,165.3,308.73Zm0-6.13a.5.5,0,0,1,.5-.5h0a.5.5,0,0,1,.49.5h0a.5.5,0,0,1-.49.5h0A.5.5,0,0,1,165.3,302.6Zm0-6.13a.5.5,0,0,1,.5-.5h0a.49.49,0,0,1,.49.5h0a.5.5,0,0,1-.49.5h0A.5.5,0,0,1,165.3,296.47Z" style="fill: rgb(224, 224, 224); transform-origin: 165.795059px 305.669983px;" id="el1qml7mskgz" class="animable"></path><path d="M165.8,321.5a.48.48,0,0,1-.36-.15.46.46,0,0,1-.11-.16.58.58,0,0,1,0-.19.65.65,0,0,1,0-.19.46.46,0,0,1,.11-.16.51.51,0,0,1,.55-.11.42.42,0,0,1,.16.11.64.64,0,0,1,.11.16.63.63,0,0,1,0,.19.58.58,0,0,1,0,.19.64.64,0,0,1-.11.16.42.42,0,0,1-.16.11A.43.43,0,0,1,165.8,321.5Z" style="fill: rgb(224, 224, 224); transform-origin: 165.794998px 321.001755px;" id="el8k5pcc146m6" class="animable"></path><path d="M222.55,321a.5.5,0,0,1,.5-.5h0a.5.5,0,0,1,.5.5h0a.5.5,0,0,1-.5.5h0A.5.5,0,0,1,222.55,321Zm-5.72,0a.5.5,0,0,1,.5-.5h0a.5.5,0,0,1,.5.5h0a.5.5,0,0,1-.5.5h0A.5.5,0,0,1,216.83,321Zm-5.73,0a.5.5,0,0,1,.5-.5h0a.5.5,0,0,1,.5.5h0a.5.5,0,0,1-.5.5h0A.5.5,0,0,1,211.1,321Zm-5.72,0a.5.5,0,0,1,.5-.5h0a.5.5,0,0,1,.5.5h0a.5.5,0,0,1-.5.5h0A.5.5,0,0,1,205.38,321Zm-5.73,0a.5.5,0,0,1,.5-.5h0a.5.5,0,0,1,.5.5h0a.5.5,0,0,1-.5.5h0A.5.5,0,0,1,199.65,321Zm-5.73,0a.5.5,0,0,1,.51-.5h0a.49.49,0,0,1,.49.5h0a.49.49,0,0,1-.49.5h0A.5.5,0,0,1,193.92,321Zm-5.72,0a.5.5,0,0,1,.5-.5h0a.5.5,0,0,1,.5.5h0a.5.5,0,0,1-.5.5h0A.5.5,0,0,1,188.2,321Zm-5.73,0a.5.5,0,0,1,.5-.5h0a.5.5,0,0,1,.5.5h0a.5.5,0,0,1-.5.5h0A.5.5,0,0,1,182.47,321Zm-5.72,0a.5.5,0,0,1,.5-.5h0a.5.5,0,0,1,.5.5h0a.5.5,0,0,1-.5.5h0A.5.5,0,0,1,176.75,321ZM171,321a.5.5,0,0,1,.5-.5h0a.5.5,0,0,1,.5.5h0a.5.5,0,0,1-.5.5h0A.5.5,0,0,1,171,321Z" style="fill: rgb(224, 224, 224); transform-origin: 197.275002px 321.000031px;" id="eljcp0wedjqk" class="animable"></path><path d="M228.78,321.5a.41.41,0,0,1-.19,0,.45.45,0,0,1-.17-.11.44.44,0,0,1-.1-.16.41.41,0,0,1,0-.19.5.5,0,0,1,.14-.35.45.45,0,0,1,.17-.11.5.5,0,0,1,.38,0,.36.36,0,0,1,.16.11.51.51,0,0,1,.15.35.43.43,0,0,1,0,.19.46.46,0,0,1-.11.16.36.36,0,0,1-.16.11A.43.43,0,0,1,228.78,321.5Z" style="fill: rgb(224, 224, 224); transform-origin: 228.819717px 321.03212px;" id="elswiz87sx4k" class="animable"></path><path d="M228.28,315.18a.5.5,0,0,1,.5-.5h0a.5.5,0,0,1,.5.5h0a.51.51,0,0,1-.5.5h0A.5.5,0,0,1,228.28,315.18Zm0-5.82a.5.5,0,0,1,.5-.51h0a.51.51,0,0,1,.5.51h0a.51.51,0,0,1-.5.5h0A.5.5,0,0,1,228.28,309.36Zm0-5.83a.5.5,0,0,1,.5-.5h0a.51.51,0,0,1,.5.5h0a.5.5,0,0,1-.5.5h0A.5.5,0,0,1,228.28,303.53Zm0-5.82a.5.5,0,0,1,.5-.5h0a.51.51,0,0,1,.5.5h0a.5.5,0,0,1-.5.5h0A.5.5,0,0,1,228.28,297.71Zm0-5.82a.5.5,0,0,1,.5-.5h0a.5.5,0,0,1,.5.5h0a.51.51,0,0,1-.5.5h0A.5.5,0,0,1,228.28,291.89Zm0-5.82a.5.5,0,0,1,.5-.5h0a.5.5,0,0,1,.5.5h0a.51.51,0,0,1-.5.5h0A.5.5,0,0,1,228.28,286.07Zm0-5.82a.5.5,0,0,1,.5-.5h0a.5.5,0,0,1,.5.5h0a.51.51,0,0,1-.5.5h0A.5.5,0,0,1,228.28,280.25Zm0-5.83a.5.5,0,0,1,.5-.5h0a.51.51,0,0,1,.5.5h0a.5.5,0,0,1-.5.5h0A.5.5,0,0,1,228.28,274.42Zm0-5.82a.5.5,0,0,1,.5-.5h0a.5.5,0,0,1,.5.5h0a.5.5,0,0,1-.5.5h0A.5.5,0,0,1,228.28,268.6Zm0-5.82a.5.5,0,0,1,.5-.5h0a.5.5,0,0,1,.5.5h0a.51.51,0,0,1-.5.5h0A.5.5,0,0,1,228.28,262.78Zm0-5.82a.5.5,0,0,1,.5-.5h0a.5.5,0,0,1,.5.5h0a.51.51,0,0,1-.5.5h0A.5.5,0,0,1,228.28,257Zm0-5.83a.5.5,0,0,1,.5-.5h0a.51.51,0,0,1,.5.5h0a.5.5,0,0,1-.5.5h0A.5.5,0,0,1,228.28,251.13Zm0-5.82a.5.5,0,0,1,.5-.5h0a.5.5,0,0,1,.5.5h0a.5.5,0,0,1-.5.5h0A.5.5,0,0,1,228.28,245.31Zm0-5.82a.5.5,0,0,1,.5-.5h0a.5.5,0,0,1,.5.5h0a.5.5,0,0,1-.5.5h0A.5.5,0,0,1,228.28,239.49Z" style="fill: rgb(224, 224, 224); transform-origin: 228.779961px 277.334984px;" id="elwuh2443vkmd" class="animable"></path><path d="M228.78,234.17a.58.58,0,0,1-.19,0,.62.62,0,0,1-.17-.11.54.54,0,0,1-.1-.16.43.43,0,0,1,0-.19.52.52,0,0,1,.14-.36.59.59,0,0,1,.17-.1.5.5,0,0,1,.38,0,.44.44,0,0,1,.16.1.55.55,0,0,1,.15.36.43.43,0,0,1,0,.19.57.57,0,0,1-.11.16.5.5,0,0,1-.35.15Z" style="fill: rgb(224, 224, 224); transform-origin: 228.819977px 233.711243px;" id="elq6opnogc3c" class="animable"></path><path d="M306.91,233.67a.5.5,0,0,1,.5-.5h0a.5.5,0,0,1,.5.5h0a.5.5,0,0,1-.5.5h0A.51.51,0,0,1,306.91,233.67Zm-6.05,0a.5.5,0,0,1,.5-.5h0a.5.5,0,0,1,.51.5h0a.51.51,0,0,1-.51.5h0A.51.51,0,0,1,300.86,233.67Zm-6.05,0a.5.5,0,0,1,.5-.5h0a.5.5,0,0,1,.5.5h0a.5.5,0,0,1-.5.5h0A.51.51,0,0,1,294.81,233.67Zm-6,0a.49.49,0,0,1,.49-.5h0a.5.5,0,0,1,.5.5h0a.5.5,0,0,1-.5.5h0A.5.5,0,0,1,288.77,233.67Zm-6,0a.5.5,0,0,1,.5-.5h0a.5.5,0,0,1,.5.5h0a.51.51,0,0,1-.5.5h0A.5.5,0,0,1,282.72,233.67Zm-6.05,0a.5.5,0,0,1,.5-.5h0a.5.5,0,0,1,.5.5h0a.51.51,0,0,1-.5.5h0A.5.5,0,0,1,276.67,233.67Zm-6.05,0a.5.5,0,0,1,.5-.5h0a.5.5,0,0,1,.5.5h0a.51.51,0,0,1-.5.5h0A.5.5,0,0,1,270.62,233.67Zm-6.05,0a.5.5,0,0,1,.5-.5h0a.5.5,0,0,1,.5.5h0a.5.5,0,0,1-.5.5h0A.51.51,0,0,1,264.57,233.67Zm-6.05,0a.5.5,0,0,1,.5-.5h0a.5.5,0,0,1,.5.5h0a.5.5,0,0,1-.5.5h0A.5.5,0,0,1,258.52,233.67Zm-6,0a.5.5,0,0,1,.5-.5h0a.5.5,0,0,1,.5.5h0a.5.5,0,0,1-.5.5h0A.51.51,0,0,1,252.47,233.67Zm-6.05,0a.5.5,0,0,1,.5-.5h0a.5.5,0,0,1,.5.5h0a.5.5,0,0,1-.5.5h0A.51.51,0,0,1,246.42,233.67Zm-6,0a.5.5,0,0,1,.5-.5h0a.5.5,0,0,1,.5.5h0a.51.51,0,0,1-.5.5h0A.5.5,0,0,1,240.38,233.67Zm-6,0a.5.5,0,0,1,.5-.5h0a.5.5,0,0,1,.5.5h0a.51.51,0,0,1-.5.5h0A.5.5,0,0,1,234.33,233.67Z" style="fill: rgb(224, 224, 224); transform-origin: 271.120003px 233.698868px;" id="elsvhauhv4th" class="animable"></path><path d="M313.46,234.17a.51.51,0,0,1-.35-.15.57.57,0,0,1-.11-.16.65.65,0,0,1,0-.19.58.58,0,0,1,0-.19.5.5,0,0,1,.11-.17.44.44,0,0,1,.16-.1.42.42,0,0,1,.38,0,.59.59,0,0,1,.17.1.48.48,0,0,1,.1.17.41.41,0,0,1,0,.19.5.5,0,0,1-.14.35A.55.55,0,0,1,313.46,234.17Z" style="fill: rgb(224, 224, 224); transform-origin: 313.46167px 233.667282px;" id="elo6yki1h92oa" class="animable"></path><path d="M313,227.36a.5.5,0,0,1,.5-.5h0a.5.5,0,0,1,.5.5h0a.5.5,0,0,1-.5.5h0A.51.51,0,0,1,313,227.36Zm0-6.31a.5.5,0,0,1,.5-.5h0a.5.5,0,0,1,.5.5h0a.49.49,0,0,1-.5.49h0A.5.5,0,0,1,313,221.05Zm0-6.32a.51.51,0,0,1,.5-.5h0a.5.5,0,0,1,.5.5h0a.5.5,0,0,1-.5.5h0A.5.5,0,0,1,313,214.73Zm0-6.31a.51.51,0,0,1,.5-.5h0a.5.5,0,0,1,.5.5h0a.5.5,0,0,1-.5.5h0A.5.5,0,0,1,313,208.42Z" style="fill: rgb(224, 224, 224); transform-origin: 313.499985px 217.889992px;" id="elnhon182cma" class="animable"></path><path d="M313.46,202.61a.5.5,0,0,1-.35-.14.62.62,0,0,1-.11-.17.58.58,0,0,1,0-.19.65.65,0,0,1,0-.19.53.53,0,0,1,.27-.27.52.52,0,0,1,.55.11.55.55,0,0,1,.14.35.48.48,0,0,1-.5.5Z" style="fill: rgb(224, 224, 224); transform-origin: 313.476273px 202.112183px;" id="el2nhcekbduey" class="animable"></path><path d="M372.48,313.17a.51.51,0,0,1-.36-.15.5.5,0,0,1-.14-.35.54.54,0,0,1,.14-.36.52.52,0,0,1,.55-.1.54.54,0,0,1,.16.1.71.71,0,0,1,.11.17.58.58,0,0,1,0,.19.5.5,0,0,1-.14.35A.51.51,0,0,1,372.48,313.17Z" style="fill: rgb(224, 224, 224); transform-origin: 372.463928px 312.670975px;" id="el5z603dzsl49" class="animable"></path><path d="M372,347.24a.5.5,0,0,1,.5-.5h0a.5.5,0,0,1,.51.5h0a.5.5,0,0,1-.51.5h0A.5.5,0,0,1,372,347.24Zm0-5.76a.5.5,0,0,1,.5-.5h0a.5.5,0,0,1,.51.5h0a.51.51,0,0,1-.51.5h0A.51.51,0,0,1,372,341.48Zm0-5.77a.51.51,0,0,1,.5-.5h0a.51.51,0,0,1,.51.5h0a.51.51,0,0,1-.51.51h0A.51.51,0,0,1,372,335.71Zm0-5.76a.51.51,0,0,1,.5-.5h0a.51.51,0,0,1,.51.5h0a.5.5,0,0,1-.51.5h0A.5.5,0,0,1,372,330Zm0-5.76a.5.5,0,0,1,.5-.5h0a.5.5,0,0,1,.51.5h0a.5.5,0,0,1-.51.5h0A.5.5,0,0,1,372,324.19Zm0-5.76a.5.5,0,0,1,.5-.5h0a.5.5,0,0,1,.51.5h0a.51.51,0,0,1-.51.5h0A.51.51,0,0,1,372,318.43Z" style="fill: rgb(224, 224, 224); transform-origin: 372.50499px 332.83493px;" id="el84ptzqau7a3" class="animable"></path><path d="M372.48,353.5a.49.49,0,0,1-.36-.15A.5.5,0,0,1,372,353a.58.58,0,0,1,0-.19.64.64,0,0,1,.11-.16.51.51,0,0,1,.71,0,.5.5,0,0,1,.14.35.63.63,0,0,1,0,.19.64.64,0,0,1-.11.16.42.42,0,0,1-.16.11A.43.43,0,0,1,372.48,353.5Z" style="fill: rgb(224, 224, 224); transform-origin: 372.479675px 353.00351px;" id="el61fdtt9t2id" class="animable"></path><path d="M366,353a.5.5,0,0,1,.5-.5h0a.5.5,0,0,1,.5.5h0a.5.5,0,0,1-.5.5h0A.5.5,0,0,1,366,353Zm-6,0a.5.5,0,0,1,.5-.5h0a.5.5,0,0,1,.5.5h0a.5.5,0,0,1-.5.5h0A.5.5,0,0,1,360,353Zm-6,0a.5.5,0,0,1,.5-.5h0a.5.5,0,0,1,.5.5h0a.5.5,0,0,1-.5.5h0A.5.5,0,0,1,354,353Zm-6,0a.5.5,0,0,1,.5-.5h0a.5.5,0,0,1,.5.5h0a.5.5,0,0,1-.5.5h0A.5.5,0,0,1,348,353Zm-6,0a.5.5,0,0,1,.5-.5h0a.5.5,0,0,1,.5.5h0a.5.5,0,0,1-.5.5h0A.5.5,0,0,1,342,353Zm-6,0a.5.5,0,0,1,.5-.5h0a.5.5,0,0,1,.5.5h0a.5.5,0,0,1-.5.5h0A.5.5,0,0,1,336.05,353Zm-6,0a.5.5,0,0,1,.5-.5h0a.5.5,0,0,1,.5.5h0a.5.5,0,0,1-.5.5h0A.5.5,0,0,1,330.06,353Zm-6,0a.5.5,0,0,1,.51-.5h0a.5.5,0,0,1,.5.5h0a.5.5,0,0,1-.5.5h0A.5.5,0,0,1,324.07,353Zm-6,0a.5.5,0,0,1,.5-.5h0a.5.5,0,0,1,.5.5h0a.5.5,0,0,1-.5.5h0A.5.5,0,0,1,318.09,353Zm-6,0a.5.5,0,0,1,.5-.5h0a.5.5,0,0,1,.5.5h0a.5.5,0,0,1-.5.5h0A.5.5,0,0,1,312.1,353Zm-6,0a.5.5,0,0,1,.5-.5h0a.5.5,0,0,1,.5.5h0a.5.5,0,0,1-.5.5h0A.5.5,0,0,1,306.11,353Zm-6,0a.5.5,0,0,1,.5-.5h0a.5.5,0,0,1,.51.5h0a.5.5,0,0,1-.51.5h0A.5.5,0,0,1,300.12,353Zm-6,0a.5.5,0,0,1,.5-.5h0a.5.5,0,0,1,.5.5h0a.5.5,0,0,1-.5.5h0A.5.5,0,0,1,294.14,353Zm-6,0a.5.5,0,0,1,.5-.5h0a.5.5,0,0,1,.5.5h0a.5.5,0,0,1-.5.5h0A.5.5,0,0,1,288.15,353Zm-6,0a.5.5,0,0,1,.5-.5h0a.5.5,0,0,1,.5.5h0a.5.5,0,0,1-.5.5h0A.5.5,0,0,1,282.16,353Zm-6,0a.5.5,0,0,1,.5-.5h0a.5.5,0,0,1,.5.5h0a.5.5,0,0,1-.5.5h0A.5.5,0,0,1,276.18,353Zm-6,0a.5.5,0,0,1,.5-.5h0a.5.5,0,0,1,.5.5h0a.5.5,0,0,1-.5.5h0A.5.5,0,0,1,270.19,353Zm-6,0a.5.5,0,0,1,.5-.5h0a.5.5,0,0,1,.5.5h0a.5.5,0,0,1-.5.5h0A.5.5,0,0,1,264.2,353Zm-6,0a.49.49,0,0,1,.49-.5h0a.5.5,0,0,1,.5.5h0a.5.5,0,0,1-.5.5h0A.49.49,0,0,1,258.22,353Zm-6,0a.5.5,0,0,1,.5-.5h0a.5.5,0,0,1,.5.5h0a.5.5,0,0,1-.5.5h0A.5.5,0,0,1,252.23,353Zm-6,0a.5.5,0,0,1,.5-.5h0a.5.5,0,0,1,.5.5h0a.5.5,0,0,1-.5.5h0A.5.5,0,0,1,246.24,353Zm-6,0a.5.5,0,0,1,.5-.5h0a.5.5,0,0,1,.5.5h0a.5.5,0,0,1-.5.5h0A.5.5,0,0,1,240.25,353Zm-6,0a.5.5,0,0,1,.5-.5h0a.5.5,0,0,1,.51.5h0a.5.5,0,0,1-.51.5h0A.5.5,0,0,1,234.26,353Z" style="fill: rgb(224, 224, 224); transform-origin: 300.5px 352.999939px;" id="el054k7k4zjeka" class="animable"></path><path d="M228.78,353.5a.41.41,0,0,1-.19,0,.45.45,0,0,1-.17-.11.52.52,0,0,1,0-.7.45.45,0,0,1,.17-.11.5.5,0,0,1,.38,0,.36.36,0,0,1,.16.11.49.49,0,0,1,0,.7.36.36,0,0,1-.16.11A.43.43,0,0,1,228.78,353.5Z" style="fill: rgb(224, 224, 224); transform-origin: 228.780823px 353.02684px;" id="el73rempy3kq" class="animable"></path><path d="M228.28,346.6a.5.5,0,0,1,.5-.5h0a.5.5,0,0,1,.5.5h0a.5.5,0,0,1-.5.5h0A.5.5,0,0,1,228.28,346.6Zm0-6.4a.5.5,0,0,1,.5-.5h0a.5.5,0,0,1,.5.5h0a.5.5,0,0,1-.5.5h0A.5.5,0,0,1,228.28,340.2Zm0-6.4a.5.5,0,0,1,.5-.5h0a.5.5,0,0,1,.5.5h0a.5.5,0,0,1-.5.5h0A.5.5,0,0,1,228.28,333.8Zm0-6.4a.5.5,0,0,1,.5-.5h0a.5.5,0,0,1,.5.5h0a.5.5,0,0,1-.5.5h0A.5.5,0,0,1,228.28,327.4Z" style="fill: rgb(224, 224, 224); transform-origin: 228.779999px 337.000015px;" id="elsnc21ywdipp" class="animable"></path><path d="M228.78,321.5a.41.41,0,0,1-.19,0,.45.45,0,0,1-.17-.11.44.44,0,0,1-.1-.16.41.41,0,0,1,0-.19.5.5,0,0,1,.14-.35.45.45,0,0,1,.17-.11.5.5,0,0,1,.38,0,.36.36,0,0,1,.16.11.51.51,0,0,1,.15.35.43.43,0,0,1,0,.19.46.46,0,0,1-.11.16.36.36,0,0,1-.16.11A.43.43,0,0,1,228.78,321.5Z" style="fill: rgb(224, 224, 224); transform-origin: 228.819717px 321.03212px;" id="elfxg86y7rmpl" class="animable"></path><path d="M228.78,202.61a.41.41,0,0,1-.19,0,.45.45,0,0,1-.17-.11.44.44,0,0,1-.1-.16.41.41,0,0,1,0-.19.55.55,0,0,1,.14-.35.45.45,0,0,1,.17-.11.5.5,0,0,1,.38,0,.36.36,0,0,1,.16.11.5.5,0,0,1,.15.35.51.51,0,0,1-.15.35.36.36,0,0,1-.16.11A.43.43,0,0,1,228.78,202.61Z" style="fill: rgb(224, 224, 224); transform-origin: 228.814407px 202.139069px;" id="elibwwb03pzte" class="animable"></path><path d="M228.28,227.36a.5.5,0,0,1,.5-.51h0a.51.51,0,0,1,.5.51h0a.51.51,0,0,1-.5.5h0A.5.5,0,0,1,228.28,227.36Zm0-6.31a.5.5,0,0,1,.5-.5h0a.5.5,0,0,1,.5.5h0a.51.51,0,0,1-.5.5h0A.5.5,0,0,1,228.28,221.05Zm0-6.32a.5.5,0,0,1,.5-.5h0a.51.51,0,0,1,.5.5h0a.5.5,0,0,1-.5.5h0A.5.5,0,0,1,228.28,214.73Zm0-6.31a.5.5,0,0,1,.5-.5h0a.51.51,0,0,1,.5.5h0a.5.5,0,0,1-.5.5h0A.5.5,0,0,1,228.28,208.42Z" style="fill: rgb(224, 224, 224); transform-origin: 228.779945px 217.889999px;" id="elvghrdqcp1r" class="animable"></path><path d="M228.78,234.17a.58.58,0,0,1-.19,0,.62.62,0,0,1-.17-.11.54.54,0,0,1-.1-.16.43.43,0,0,1,0-.19.52.52,0,0,1,.14-.36.59.59,0,0,1,.17-.1.5.5,0,0,1,.38,0,.44.44,0,0,1,.16.1.55.55,0,0,1,.15.36.43.43,0,0,1,0,.19.57.57,0,0,1-.11.16.5.5,0,0,1-.35.15Z" style="fill: rgb(224, 224, 224); transform-origin: 228.819977px 233.711243px;" id="el2mekc7r7has" class="animable"></path></g><g id="freepik--Shadow--inject-104" style="transform-origin: 250px 416.239983px;" class="animable animator-hidden"><ellipse id="freepik--path--inject-104" cx="250" cy="416.24" rx="193.89" ry="11.32" style="fill: rgb(245, 245, 245); transform-origin: 250px 416.24px;" class="animable"></ellipse></g><g id="freepik--Monitors--inject-104" style="transform-origin: 250.015007px 341.857346px;" class="animable"><path d="M123.3,353.48l2-34.24a3.89,3.89,0,0,1,3.83-3.62h55.57a3.38,3.38,0,0,1,3.41,3.62l-2,34.24a3.89,3.89,0,0,1-3.83,3.63H126.72A3.4,3.4,0,0,1,123.3,353.48Z" style="fill: #0084FF; transform-origin: 155.705383px 336.36496px;" id="elpu8njxvgoq" class="animable"></path><path d="M120.49,353.48l2-34.24a3.89,3.89,0,0,1,3.84-3.62h57.79a3.39,3.39,0,0,1,3.42,3.62l-2,34.24a3.89,3.89,0,0,1-3.83,3.63H123.91A3.4,3.4,0,0,1,120.49,353.48Z" style="fill: rgb(255, 255, 255); transform-origin: 154.015003px 336.36496px;" id="elb0oc69j4xdc" class="animable"></path><g id="el7ewn4xb9sy7"><path d="M120.49,353.48l2-34.24a3.89,3.89,0,0,1,3.84-3.62h57.79a3.39,3.39,0,0,1,3.42,3.62l-2,34.24a3.89,3.89,0,0,1-3.83,3.63H123.91A3.4,3.4,0,0,1,120.49,353.48Z" style="fill: #0084FF; opacity: 0.3; transform-origin: 154.015003px 336.36496px;" class="animable" id="elllwbuwhrfel"></path></g><g id="elsjvxaghb7ga"><rect x="154.44" y="350.17" width="7.7" height="28.15" rx="3.62" style="fill: #0084FF; transform-origin: 158.29px 364.245px; transform: rotate(90deg);" class="animable" id="el5jmox4dpt3a"></rect></g><g id="eljyawnhqwng"><g style="opacity: 0.6; transform-origin: 158.289978px 364.24501px;" class="animable" id="elh2c8cbh06i"><g id="elrbijz5lnqri"><rect x="154.44" y="350.17" width="7.7" height="28.15" rx="3.62" style="fill: rgb(255, 255, 255); transform-origin: 158.29px 364.245px; transform: rotate(90deg);" class="animable" id="elssfcjldea7s"></rect></g></g></g><g id="elmmgnrxxq8a9"><rect x="146.97" y="349.05" width="7.7" height="30.38" rx="3.62" style="fill: rgb(255, 255, 255); transform-origin: 150.82px 364.24px; transform: rotate(90deg);" class="animable" id="elxngkze22zu"></rect></g><g id="elld58na6npmh"><rect x="146.97" y="349.05" width="7.7" height="30.38" rx="3.62" style="fill: #0084FF; opacity: 0.3; transform-origin: 150.82px 364.24px; transform: rotate(90deg);" class="animable" id="elnm9qu651h8"></rect></g><g id="el6m0ydytm8rd"><path d="M182.52,355.35H123.3a1.5,1.5,0,0,1-1.51-1.6l2-34.78a1.72,1.72,0,0,1,1.69-1.6h59.22a1.5,1.5,0,0,1,1.51,1.6l-2,34.78A1.72,1.72,0,0,1,182.52,355.35Z" style="fill: rgb(255, 255, 255); opacity: 0.9; transform-origin: 154.000008px 336.360031px;" class="animable" id="el2645hn0lybr"></path></g><g id="el245mi5jqs3a"><polygon points="140.37 355.35 128.59 355.35 139.36 317.37 151.14 317.37 140.37 355.35" style="fill: #0084FF; opacity: 0.1; transform-origin: 139.864998px 336.360001px;" class="animable" id="elitor0bsjx1"></polygon></g><g id="ela05zrnblowv"><polygon points="150.01 355.35 141.78 355.35 152.55 317.37 160.78 317.37 150.01 355.35" style="fill: #0084FF; opacity: 0.1; transform-origin: 151.279999px 336.360001px;" class="animable" id="elhjuzx9wxaot"></polygon></g><g id="el3ulqdiwxfzt"><polygon points="167.95 355.35 159.72 355.35 170.49 317.37 178.72 317.37 167.95 355.35" style="fill: #0084FF; opacity: 0.1; transform-origin: 169.220001px 336.360001px;" class="animable" id="el1dvj534z9r1"></polygon></g><path d="M219,353.48l2-34.24a3.88,3.88,0,0,1,3.83-3.62h55.56a3.38,3.38,0,0,1,3.42,3.62l-2,34.24a3.9,3.9,0,0,1-3.83,3.63H222.43A3.38,3.38,0,0,1,219,353.48Z" style="fill: #0084FF; transform-origin: 251.404633px 336.365112px;" id="elc9mkq9kswta" class="animable"></path><path d="M216.21,353.48l2-34.24a3.89,3.89,0,0,1,3.83-3.62h57.8a3.38,3.38,0,0,1,3.41,3.62l-2,34.24a3.89,3.89,0,0,1-3.83,3.63H219.63A3.39,3.39,0,0,1,216.21,353.48Z" style="fill: rgb(255, 255, 255); transform-origin: 249.730026px 336.365021px;" id="elrlgiz9bfa8f" class="animable"></path><g id="elevh8w9uk529"><path d="M216.21,353.48l2-34.24a3.89,3.89,0,0,1,3.83-3.62h57.8a3.38,3.38,0,0,1,3.41,3.62l-2,34.24a3.89,3.89,0,0,1-3.83,3.63H219.63A3.39,3.39,0,0,1,216.21,353.48Z" style="fill: #0084FF; opacity: 0.3; transform-origin: 249.730026px 336.365021px;" class="animable" id="elih7o7a763k"></path></g><g id="ell1e264iegvq"><rect x="250.15" y="350.17" width="7.7" height="28.15" rx="3.62" style="fill: #0084FF; transform-origin: 254px 364.245px; transform: rotate(90deg);" class="animable" id="elu1rhi9qdsq"></rect></g><g id="elgr5lu008ro"><g style="opacity: 0.6; transform-origin: 253.999985px 364.244995px;" class="animable" id="elgrpbf2zuzri"><g id="elqri2o8szjx"><rect x="250.15" y="350.17" width="7.7" height="28.15" rx="3.62" style="fill: rgb(255, 255, 255); transform-origin: 254px 364.245px; transform: rotate(90deg);" class="animable" id="eltkbrocbjbs7"></rect></g></g></g><g id="elusw5z924alb"><rect x="242.68" y="349.05" width="7.7" height="30.38" rx="3.62" style="fill: rgb(255, 255, 255); transform-origin: 246.53px 364.24px; transform: rotate(90deg);" class="animable" id="elofj1905miub"></rect></g><g id="elnypqbgho3f"><rect x="242.68" y="349.05" width="7.7" height="30.38" rx="3.62" style="fill: #0084FF; opacity: 0.3; transform-origin: 246.53px 364.24px; transform: rotate(90deg);" class="animable" id="elp37vc7vnjd"></rect></g><g id="el0j3dd9pky0e9"><path d="M278.23,355.35H219a1.49,1.49,0,0,1-1.5-1.6l2-34.78a1.72,1.72,0,0,1,1.69-1.6h59.22a1.49,1.49,0,0,1,1.5,1.6l-2,34.78A1.71,1.71,0,0,1,278.23,355.35Z" style="fill: rgb(255, 255, 255); opacity: 0.9; transform-origin: 249.704994px 336.360001px;" class="animable" id="elcxcv88urt2l"></path></g><g id="el69ny33k2fhh"><polygon points="236.08 355.35 224.31 355.35 235.08 317.37 246.85 317.37 236.08 355.35" style="fill: #0084FF; opacity: 0.1; transform-origin: 235.580002px 336.360001px;" class="animable" id="eldj6whhyzcu4"></polygon></g><g id="elhn7ct5fz9jg"><polygon points="245.72 355.35 237.5 355.35 248.27 317.37 256.5 317.37 245.72 355.35" style="fill: #0084FF; opacity: 0.1; transform-origin: 247px 336.360001px;" class="animable" id="elx0ut1vyhz9d"></polygon></g><g id="elafjt2tps0rl"><polygon points="263.66 355.35 255.44 355.35 266.21 317.37 274.44 317.37 263.66 355.35" style="fill: #0084FF; opacity: 0.1; transform-origin: 264.940002px 336.360001px;" class="animable" id="eloy7bj3dw6jl"></polygon></g><path d="M314.73,353.48l2-34.24a3.88,3.88,0,0,1,3.83-3.62h55.56a3.39,3.39,0,0,1,3.42,3.62l-2,34.24a3.9,3.9,0,0,1-3.84,3.63H318.15A3.4,3.4,0,0,1,314.73,353.48Z" style="fill: #0084FF; transform-origin: 347.134995px 336.364944px;" id="eluqc4rrted9" class="animable"></path><path d="M311.93,353.48l2-34.24a3.88,3.88,0,0,1,3.83-3.62h57.79a3.39,3.39,0,0,1,3.42,3.62l-2,34.24a3.9,3.9,0,0,1-3.83,3.63h-57.8A3.38,3.38,0,0,1,311.93,353.48Z" style="fill: rgb(255, 255, 255); transform-origin: 345.449265px 336.365036px;" id="el68fu7js0lcn" class="animable"></path><g id="elc7ac3q005k9"><path d="M311.93,353.48l2-34.24a3.88,3.88,0,0,1,3.83-3.62h57.79a3.39,3.39,0,0,1,3.42,3.62l-2,34.24a3.9,3.9,0,0,1-3.83,3.63h-57.8A3.38,3.38,0,0,1,311.93,353.48Z" style="fill: #0084FF; opacity: 0.3; transform-origin: 345.449265px 336.365036px;" class="animable" id="elhx3vottlz4"></path></g><g id="elwd7r3llwqsc"><rect x="345.87" y="350.17" width="7.7" height="28.15" rx="3.62" style="fill: #0084FF; transform-origin: 349.72px 364.245px; transform: rotate(90deg);" class="animable" id="elp80tdcjr6ih"></rect></g><g id="elmn65036f64b"><g style="opacity: 0.6; transform-origin: 349.719986px 364.244995px;" class="animable" id="el0jf3smjjnrh9"><g id="elmbwei0ftcis"><rect x="345.87" y="350.17" width="7.7" height="28.15" rx="3.62" style="fill: rgb(255, 255, 255); transform-origin: 349.72px 364.245px; transform: rotate(90deg);" class="animable" id="el8l9dfccxyn4"></rect></g></g></g><g id="el2nawumnwu8"><rect x="338.4" y="349.05" width="7.7" height="30.38" rx="3.62" style="fill: rgb(255, 255, 255); transform-origin: 342.25px 364.24px; transform: rotate(90deg);" class="animable" id="el6evedauns7a"></rect></g><g id="els8yprfmvw1b"><rect x="338.4" y="349.05" width="7.7" height="30.38" rx="3.62" style="fill: #0084FF; opacity: 0.3; transform-origin: 342.25px 364.24px; transform: rotate(90deg);" class="animable" id="elp59a5hy6re"></rect></g><g id="ela11kzhjyr9d"><path d="M374,355.35H314.73a1.5,1.5,0,0,1-1.51-1.6l2-34.78a1.71,1.71,0,0,1,1.69-1.6h59.21a1.49,1.49,0,0,1,1.51,1.6l-2,34.78A1.72,1.72,0,0,1,374,355.35Z" style="fill: rgb(255, 255, 255); opacity: 0.9; transform-origin: 345.425369px 336.359909px;" class="animable" id="el9el3uiehrtd"></path></g><g id="ell1b77m2dno"><polygon points="331.8 355.35 320.02 355.35 330.79 317.37 342.57 317.37 331.8 355.35" style="fill: #0084FF; opacity: 0.1; transform-origin: 331.294998px 336.360001px;" class="animable" id="elzjrpnu1viv"></polygon></g><g id="eldnbmauooc48"><polygon points="341.44 355.35 333.21 355.35 343.99 317.37 352.21 317.37 341.44 355.35" style="fill: #0084FF; opacity: 0.1; transform-origin: 342.709991px 336.360001px;" class="animable" id="eldb0yrxb835"></polygon></g><g id="elxqa9pv96xu"><polygon points="359.38 355.35 351.15 355.35 361.93 317.37 370.15 317.37 359.38 355.35" style="fill: #0084FF; opacity: 0.1; transform-origin: 360.649994px 336.360001px;" class="animable" id="elbyuoilcdb6k"></polygon></g></g><g id="freepik--Connection--inject-104" style="transform-origin: 250.000015px 297.714447px;" class="animable"><path d="M153.68,308.8a.58.58,0,0,1-.19,0l-.17-.11a.54.54,0,0,1-.1-.16.46.46,0,0,1,0-.19.51.51,0,0,1,.14-.36.53.53,0,0,1,.55-.11.46.46,0,0,1,.16.11.42.42,0,0,1,.11.16.45.45,0,0,1,0,.2.46.46,0,0,1,0,.19.42.42,0,0,1-.11.16.5.5,0,0,1-.35.15Z" style="fill: #0084FF; transform-origin: 153.700661px 308.338287px;" id="elx7oxp3sxf9s" class="animable"></path><path d="M153.18,304.63a.5.5,0,0,1,.5-.5h0a.5.5,0,0,1,.5.5h0a.5.5,0,0,1-.5.5h0A.5.5,0,0,1,153.18,304.63Z" style="fill: #0084FF; transform-origin: 153.679993px 304.630005px;" id="el9r9i53xgyro" class="animable"></path><path d="M153.68,301.47a.51.51,0,0,1-.36-.15.44.44,0,0,1-.1-.16.41.41,0,0,1,0-.19.5.5,0,0,1,.14-.35.51.51,0,0,1,.55-.11.46.46,0,0,1,.16.11.36.36,0,0,1,.11.16.43.43,0,0,1,0,.19.41.41,0,0,1,0,.19.53.53,0,0,1-.27.27A.43.43,0,0,1,153.68,301.47Z" style="fill: #0084FF; transform-origin: 153.699997px 300.972809px;" id="elomgs6mnbfy" class="animable"></path><path d="M245.49,301a.5.5,0,0,1,.49-.5h0a.5.5,0,0,1,.5.5h0a.5.5,0,0,1-.5.5h0A.49.49,0,0,1,245.49,301Zm-4,0a.51.51,0,0,1,.5-.5h0a.5.5,0,0,1,.5.5h0a.5.5,0,0,1-.5.5h0A.5.5,0,0,1,241.47,301Zm-4,0a.5.5,0,0,1,.5-.5h0a.51.51,0,0,1,.5.5h0a.5.5,0,0,1-.5.5h0A.5.5,0,0,1,237.46,301Zm-4,0a.5.5,0,0,1,.5-.5h0a.5.5,0,0,1,.49.5h0a.49.49,0,0,1-.49.5h0A.5.5,0,0,1,233.45,301Zm-4,0a.51.51,0,0,1,.5-.5h0a.5.5,0,0,1,.5.5h0a.5.5,0,0,1-.5.5h0A.5.5,0,0,1,229.43,301Zm-4,0a.5.5,0,0,1,.5-.5h0a.51.51,0,0,1,.5.5h0a.5.5,0,0,1-.5.5h0A.5.5,0,0,1,225.42,301Zm-4,0a.5.5,0,0,1,.5-.5h0a.51.51,0,0,1,.5.5h0a.5.5,0,0,1-.5.5h0A.5.5,0,0,1,221.41,301Zm-4,0a.51.51,0,0,1,.5-.5h0a.5.5,0,0,1,.5.5h0a.5.5,0,0,1-.5.5h0A.5.5,0,0,1,217.39,301Zm-4,0a.5.5,0,0,1,.5-.5h0a.51.51,0,0,1,.5.5h0a.5.5,0,0,1-.5.5h0A.5.5,0,0,1,213.38,301Zm-4,0a.5.5,0,0,1,.5-.5h0a.51.51,0,0,1,.5.5h0a.5.5,0,0,1-.5.5h0A.5.5,0,0,1,209.37,301Zm-4,0a.51.51,0,0,1,.5-.5h0a.5.5,0,0,1,.5.5h0a.5.5,0,0,1-.5.5h0A.5.5,0,0,1,205.35,301Zm-4,0a.5.5,0,0,1,.5-.5h0a.51.51,0,0,1,.5.5h0a.5.5,0,0,1-.5.5h0A.5.5,0,0,1,201.34,301Zm-4,0a.51.51,0,0,1,.51-.5h0a.51.51,0,0,1,.5.5h0a.5.5,0,0,1-.5.5h0A.5.5,0,0,1,197.32,301Zm-4,0a.51.51,0,0,1,.5-.5h0a.5.5,0,0,1,.5.5h0a.5.5,0,0,1-.5.5h0A.5.5,0,0,1,193.31,301Zm-4,0a.5.5,0,0,1,.5-.5h0a.5.5,0,0,1,.5.5h0a.5.5,0,0,1-.5.5h0A.5.5,0,0,1,189.3,301Zm-4,0a.51.51,0,0,1,.5-.5h0a.51.51,0,0,1,.51.5h0a.5.5,0,0,1-.51.5h0A.5.5,0,0,1,185.28,301Zm-4,0a.5.5,0,0,1,.5-.5h0a.5.5,0,0,1,.5.5h0a.5.5,0,0,1-.5.5h0A.5.5,0,0,1,181.27,301Zm-4,0a.5.5,0,0,1,.5-.5h0a.51.51,0,0,1,.5.5h0a.5.5,0,0,1-.5.5h0A.5.5,0,0,1,177.26,301Zm-4,0a.51.51,0,0,1,.5-.5h0a.5.5,0,0,1,.5.5h0a.5.5,0,0,1-.5.5h0A.5.5,0,0,1,173.24,301Zm-4,0a.51.51,0,0,1,.5-.5h0a.5.5,0,0,1,.5.5h0a.5.5,0,0,1-.5.5h0A.5.5,0,0,1,169.23,301Zm-4,0a.5.5,0,0,1,.5-.5h0a.51.51,0,0,1,.5.5h0a.5.5,0,0,1-.5.5h0A.5.5,0,0,1,165.22,301Zm-4,0a.5.5,0,0,1,.49-.5h0a.5.5,0,0,1,.5.5h0a.5.5,0,0,1-.5.5h0A.49.49,0,0,1,161.21,301Zm-4,0a.51.51,0,0,1,.5-.5h0a.5.5,0,0,1,.5.5h0a.5.5,0,0,1-.5.5h0A.5.5,0,0,1,157.19,301Z" style="fill: #0084FF; transform-origin: 201.828941px 301.054688px;" id="elucwzkot5xwc" class="animable"></path><path d="M250,301.47a.41.41,0,0,1-.19,0,.44.44,0,0,1-.16-.1.45.45,0,0,1-.11-.17.41.41,0,0,1,0-.19.43.43,0,0,1,0-.19.42.42,0,0,1,.11-.16.46.46,0,0,1,.16-.11.5.5,0,0,1,.38,0,.46.46,0,0,1,.16.11.47.47,0,0,1,.15.35.41.41,0,0,1,0,.19.45.45,0,0,1-.11.17.44.44,0,0,1-.16.1A.41.41,0,0,1,250,301.47Z" style="fill: #0084FF; transform-origin: 250.020004px 300.999481px;" id="el5vyfyf65el6" class="animable"></path><path d="M250,301.47a.41.41,0,0,1-.19,0,.44.44,0,0,1-.16-.1.45.45,0,0,1-.11-.17.41.41,0,0,1,0-.19.43.43,0,0,1,0-.19.42.42,0,0,1,.11-.16.46.46,0,0,1,.16-.11.5.5,0,0,1,.38,0,.46.46,0,0,1,.16.11.47.47,0,0,1,.15.35.41.41,0,0,1,0,.19.45.45,0,0,1-.11.17.44.44,0,0,1-.16.1A.41.41,0,0,1,250,301.47Z" style="fill: #0084FF; transform-origin: 250.020004px 300.999481px;" id="el49otpftc1pq" class="animable"></path><path d="M249.5,297.5a.5.5,0,0,1,.5-.5h0a.5.5,0,0,1,.5.5h0a.5.5,0,0,1-.5.5h0A.5.5,0,0,1,249.5,297.5Zm0-3.47a.5.5,0,0,1,.5-.5h0a.5.5,0,0,1,.5.5h0a.5.5,0,0,1-.5.5h0A.5.5,0,0,1,249.5,294Zm0-3.47a.5.5,0,0,1,.5-.5h0a.5.5,0,0,1,.5.5h0a.5.5,0,0,1-.5.5h0A.5.5,0,0,1,249.5,290.56Z" style="fill: #0084FF; transform-origin: 250px 294.029999px;" id="elbe18phs8oz" class="animable"></path><path d="M250,287.59a.47.47,0,0,1-.35-.15.36.36,0,0,1-.11-.16.43.43,0,0,1,0-.19.41.41,0,0,1,0-.19.39.39,0,0,1,.11-.17.44.44,0,0,1,.16-.1.46.46,0,0,1,.38,0,.44.44,0,0,1,.16.1.45.45,0,0,1,.11.17.41.41,0,0,1,0,.19.43.43,0,0,1,0,.19.36.36,0,0,1-.11.16A.47.47,0,0,1,250,287.59Z" style="fill: #0084FF; transform-origin: 250px 287.089478px;" id="elfbtcd84dwgm" class="animable"></path><path d="M250,301.47a.41.41,0,0,1-.19,0,.44.44,0,0,1-.16-.1.45.45,0,0,1-.11-.17.41.41,0,0,1,0-.19.43.43,0,0,1,0-.19.42.42,0,0,1,.11-.16.46.46,0,0,1,.16-.11.5.5,0,0,1,.38,0,.46.46,0,0,1,.16.11.47.47,0,0,1,.15.35.41.41,0,0,1,0,.19.45.45,0,0,1-.11.17.44.44,0,0,1-.16.1A.41.41,0,0,1,250,301.47Z" style="fill: #0084FF; transform-origin: 250.020004px 300.999481px;" id="eld0y32vk7k04" class="animable"></path><path d="M249.5,304.63a.51.51,0,0,1,.5-.5h0a.5.5,0,0,1,.5.5h0a.5.5,0,0,1-.5.5h0A.5.5,0,0,1,249.5,304.63Z" style="fill: #0084FF; transform-origin: 250px 304.630005px;" id="elqy2eosrkmf8" class="animable"></path><path d="M250,308.8a.51.51,0,0,1-.35-.15.42.42,0,0,1-.11-.16.45.45,0,0,1,0-.2.43.43,0,0,1,0-.19.42.42,0,0,1,.11-.16.51.51,0,0,1,.7,0,.42.42,0,0,1,.11.16.43.43,0,0,1,0,.19.45.45,0,0,1,0,.2.42.42,0,0,1-.11.16A.51.51,0,0,1,250,308.8Z" style="fill: #0084FF; transform-origin: 249.999977px 308.300476px;" id="elf0akc4053sv" class="animable"></path><path d="M346.32,308.8a.51.51,0,0,1-.35-.15.55.55,0,0,1-.15-.36.5.5,0,0,1,.85-.35.42.42,0,0,1,.11.16.43.43,0,0,1,0,.19.51.51,0,0,1-.5.51Z" style="fill: #0084FF; transform-origin: 346.305313px 308.298508px;" id="elt91bzow2irn" class="animable"></path><path d="M345.82,304.63a.51.51,0,0,1,.5-.5h0a.5.5,0,0,1,.5.5h0a.5.5,0,0,1-.5.5h0A.5.5,0,0,1,345.82,304.63Z" style="fill: #0084FF; transform-origin: 346.320007px 304.630005px;" id="elj1r8rladten" class="animable"></path><path d="M346.32,301.47a.5.5,0,0,1-.35-.14.55.55,0,0,1-.15-.36.51.51,0,0,1,.15-.35.5.5,0,0,1,.7,0,.47.47,0,0,1,.15.35.51.51,0,0,1-.15.36A.5.5,0,0,1,346.32,301.47Z" style="fill: #0084FF; transform-origin: 346.320023px 300.973526px;" id="elb0a6x8oa20e" class="animable"></path><path d="M341.81,301a.5.5,0,0,1,.5-.5h0a.5.5,0,0,1,.5.5h0a.5.5,0,0,1-.5.5h0A.5.5,0,0,1,341.81,301Zm-4,0a.5.5,0,0,1,.51-.5h0a.5.5,0,0,1,.5.5h0a.5.5,0,0,1-.5.5h0A.5.5,0,0,1,337.79,301Zm-4,0a.5.5,0,0,1,.5-.5h0a.5.5,0,0,1,.5.5h0a.5.5,0,0,1-.5.5h0A.5.5,0,0,1,333.78,301Zm-4,0a.5.5,0,0,1,.5-.5h0a.5.5,0,0,1,.5.5h0a.5.5,0,0,1-.5.5h0A.5.5,0,0,1,329.77,301Zm-4,0a.5.5,0,0,1,.5-.5h0a.5.5,0,0,1,.51.5h0a.5.5,0,0,1-.51.5h0A.5.5,0,0,1,325.75,301Zm-4,0a.5.5,0,0,1,.5-.5h0a.5.5,0,0,1,.5.5h0a.5.5,0,0,1-.5.5h0A.5.5,0,0,1,321.74,301Zm-4,0a.5.5,0,0,1,.5-.5h0a.5.5,0,0,1,.5.5h0a.5.5,0,0,1-.5.5h0A.5.5,0,0,1,317.73,301Zm-4,0a.5.5,0,0,1,.5-.5h0a.5.5,0,0,1,.51.5h0a.5.5,0,0,1-.51.5h0A.5.5,0,0,1,313.71,301Zm-4,0a.5.5,0,0,1,.5-.5h0a.5.5,0,0,1,.5.5h0a.5.5,0,0,1-.5.5h0A.5.5,0,0,1,309.7,301Zm-4,0a.5.5,0,0,1,.5-.5h0a.5.5,0,0,1,.5.5h0a.5.5,0,0,1-.5.5h0A.5.5,0,0,1,305.69,301Zm-4,0a.5.5,0,0,1,.5-.5h0a.5.5,0,0,1,.5.5h0a.5.5,0,0,1-.5.5h0A.5.5,0,0,1,301.67,301Zm-4,0a.5.5,0,0,1,.5-.5h0a.5.5,0,0,1,.5.5h0a.5.5,0,0,1-.5.5h0A.5.5,0,0,1,297.66,301Zm-4,0a.5.5,0,0,1,.5-.5h0a.5.5,0,0,1,.5.5h0a.5.5,0,0,1-.5.5h0A.5.5,0,0,1,293.65,301Zm-4,0a.5.5,0,0,1,.5-.5h0a.5.5,0,0,1,.5.5h0a.5.5,0,0,1-.5.5h0A.5.5,0,0,1,289.63,301Zm-4,0a.5.5,0,0,1,.5-.5h0a.5.5,0,0,1,.5.5h0a.5.5,0,0,1-.5.5h0A.5.5,0,0,1,285.62,301Zm-4,0a.5.5,0,0,1,.5-.5h0a.5.5,0,0,1,.5.5h0a.5.5,0,0,1-.5.5h0A.5.5,0,0,1,281.61,301Zm-4,0a.5.5,0,0,1,.5-.5h0a.5.5,0,0,1,.51.5h0a.5.5,0,0,1-.51.5h0A.5.5,0,0,1,277.59,301Zm-4,0a.5.5,0,0,1,.5-.5h0a.5.5,0,0,1,.5.5h0a.5.5,0,0,1-.5.5h0A.5.5,0,0,1,273.58,301Zm-4,0a.5.5,0,0,1,.5-.5h0a.5.5,0,0,1,.5.5h0a.5.5,0,0,1-.5.5h0A.5.5,0,0,1,269.57,301Zm-4,0a.5.5,0,0,1,.5-.5h0a.5.5,0,0,1,.51.5h0a.5.5,0,0,1-.51.5h0A.5.5,0,0,1,265.55,301Zm-4,0a.5.5,0,0,1,.5-.5h0a.5.5,0,0,1,.5.5h0a.5.5,0,0,1-.5.5h0A.5.5,0,0,1,261.54,301Zm-4,0a.5.5,0,0,1,.5-.5h0a.5.5,0,0,1,.5.5h0a.5.5,0,0,1-.5.5h0A.5.5,0,0,1,257.53,301Zm-4,0a.5.5,0,0,1,.5-.5h0a.5.5,0,0,1,.51.5h0a.5.5,0,0,1-.51.5h0A.5.5,0,0,1,253.51,301Z" style="fill: #0084FF; transform-origin: 298.153931px 301.054626px;" id="elcjp2jzxzws6" class="animable"></path><path d="M250,301.47a.41.41,0,0,1-.19,0,.44.44,0,0,1-.16-.1.45.45,0,0,1-.11-.17.41.41,0,0,1,0-.19.43.43,0,0,1,0-.19.42.42,0,0,1,.11-.16.46.46,0,0,1,.16-.11.5.5,0,0,1,.38,0,.46.46,0,0,1,.16.11.47.47,0,0,1,.15.35.41.41,0,0,1,0,.19.45.45,0,0,1-.11.17.44.44,0,0,1-.16.1A.41.41,0,0,1,250,301.47Z" style="fill: #0084FF; transform-origin: 250.020004px 300.999481px;" id="el7bu0xkewmht" class="animable"></path></g><g id="freepik--Cloud--inject-104" style="transform-origin: 253.993088px 190.409851px;" class="animable"><path d="M402.55,195.51a59.91,59.91,0,0,0-59.91-59.41H317.89a72.38,72.38,0,0,0-62.77-36.31H207v18.37a72.4,72.4,0,0,0-22.52,38.31A62.32,62.32,0,0,0,188.5,281H386.82a44.18,44.18,0,0,0,15.73-85.47Z" style="fill: #0084FF; transform-origin: 278.431633px 190.395454px;" id="eldacwbir4b8j" class="animable"></path><g id="el0370u11jzs7y"><path d="M402.55,195.51a59.91,59.91,0,0,0-59.91-59.41H317.89a72.38,72.38,0,0,0-62.77-36.31H207v18.37a72.4,72.4,0,0,0-22.52,38.31A62.32,62.32,0,0,0,188.5,281H386.82a44.18,44.18,0,0,0,15.73-85.47Z" style="fill: rgb(255, 255, 255); opacity: 0.7; transform-origin: 278.431633px 190.395454px;" class="animable" id="el3elighleeim"></path></g><path d="M354.38,195.51A59.93,59.93,0,0,0,272,140.45a72.41,72.41,0,0,0-135.76,16A62.32,62.32,0,0,0,140.33,281H338.65a44.18,44.18,0,0,0,15.73-85.47Z" style="fill: #0084FF; transform-origin: 230.002357px 190.392815px;" id="el1qxe27qien" class="animable"></path><g style="clip-path: url(&quot;#freepik--clip-path--inject-104&quot;); transform-origin: 278.19252px 190.395531px;" id="elv3yhrnaxjq" class="animable"><g id="elfkx3kmxozsv"><path d="M402.55,195.51a59.93,59.93,0,0,0-82.34-55.06,72.42,72.42,0,0,0-135.77,16A62.32,62.32,0,0,0,188.5,281H386.82a44.18,44.18,0,0,0,15.73-85.47Z" style="opacity: 0.1; transform-origin: 278.19252px 190.395531px;" class="animable" id="ell56ohble9lp"></path></g></g><path d="M338.65,282H140.33a63.29,63.29,0,0,1-4.84-126.4A73.41,73.41,0,0,1,207,98.82a72.92,72.92,0,0,1,65.55,40.4,60.89,60.89,0,0,1,82.84,55.62A45.16,45.16,0,0,1,338.65,282ZM207,100.76a71.85,71.85,0,0,0-69.73,55.92,1,1,0,0,1-.89.76,61.35,61.35,0,0,0,4,122.57H338.65A43.21,43.21,0,0,0,354,196.42a1,1,0,0,1-.63-.9,59,59,0,0,0-81-54.17,1,1,0,0,1-1.24-.47A71,71,0,0,0,207,100.76Z" style="fill: #0084FF; transform-origin: 230.46373px 190.409851px;" id="el3zosk0xnzp4" class="animable"></path><g id="elcgkqanga1fi"><path d="M338.65,282H140.33a63.29,63.29,0,0,1-4.84-126.4A73.41,73.41,0,0,1,207,98.82a72.92,72.92,0,0,1,65.55,40.4,60.89,60.89,0,0,1,82.84,55.62A45.16,45.16,0,0,1,338.65,282ZM207,100.76a71.85,71.85,0,0,0-69.73,55.92,1,1,0,0,1-.89.76,61.35,61.35,0,0,0,4,122.57H338.65A43.21,43.21,0,0,0,354,196.42a1,1,0,0,1-.63-.9,59,59,0,0,0-81-54.17,1,1,0,0,1-1.24-.47A71,71,0,0,0,207,100.76Z" style="fill: rgb(255, 255, 255); opacity: 0.7; transform-origin: 230.46373px 190.409851px;" class="animable" id="elp1a13h88z2f"></path></g><g id="elccxu3wgyy1t"><path d="M186.12,192.6H202a0,0,0,0,1,0,0V280a0,0,0,0,1,0,0H186.12a4.45,4.45,0,0,1-4.45-4.45V197A4.45,4.45,0,0,1,186.12,192.6Z" style="fill: rgb(224, 224, 224); transform-origin: 191.834991px 236.300003px; transform: rotate(180deg);" class="animable" id="elbmw630byr7i"></path></g><rect x="144.53" y="192.6" width="43.18" height="87.41" rx="4.45" style="fill: rgb(255, 255, 255); transform-origin: 166.12px 236.305px;" id="el7ytkia1bf2x" class="animable"></rect><rect x="144.53" y="261.87" width="43.18" height="0.81" style="fill: rgb(224, 224, 224); transform-origin: 166.12px 262.275px;" id="elhu4jrqwofet" class="animable"></rect><rect x="144.53" y="244.55" width="43.18" height="0.81" style="fill: rgb(224, 224, 224); transform-origin: 166.12px 244.955px;" id="el0fyzhx3kia3o" class="animable"></rect><rect x="144.53" y="227.24" width="43.18" height="0.81" style="fill: rgb(224, 224, 224); transform-origin: 166.12px 227.645px;" id="elsol21eojid" class="animable"></rect><rect x="144.53" y="209.92" width="43.18" height="0.81" style="fill: rgb(224, 224, 224); transform-origin: 166.12px 210.325px;" id="elivp8r7bs2" class="animable"></rect><g id="el9i5u8fnef1a"><path d="M166.06,204.3H151.62A1.65,1.65,0,0,0,150,206h0a1.65,1.65,0,0,0,1.65,1.65h14.44a1.65,1.65,0,0,0,1.65-1.65h0A1.65,1.65,0,0,0,166.06,204.3Z" style="fill: #0084FF; opacity: 0.6; transform-origin: 158.869995px 205.974869px;" class="animable" id="elhetyx356c4q"></path></g><g id="el5f41njjk09m"><path d="M166.06,200H151.62a1.65,1.65,0,0,0-1.65,1.65h0a1.65,1.65,0,0,0,1.65,1.65h14.44a1.65,1.65,0,0,0,1.65-1.65h0A1.65,1.65,0,0,0,166.06,200Z" style="fill: #0084FF; opacity: 0.6; transform-origin: 158.839989px 201.650002px;" class="animable" id="elo67hhf506v8"></path></g><g id="elftarmwb5e6u"><path d="M166.06,195.73H151.62a1.65,1.65,0,0,0-1.65,1.65h0a1.65,1.65,0,0,0,1.65,1.65h14.44a1.65,1.65,0,0,0,1.65-1.65h0A1.65,1.65,0,0,0,166.06,195.73Z" style="fill: #0084FF; opacity: 0.6; transform-origin: 158.839989px 197.37999px;" class="animable" id="eld5oz21auht7"></path></g><g id="elj0rhtg0v3i"><rect x="169.22" y="204.3" width="6.03" height="3.3" style="fill: rgb(235, 235, 235); transform-origin: 172.235px 205.95px; transform: rotate(180deg);" class="animable" id="elcbioj22nqqr"></rect></g><g id="ely70gknjtvih"><rect x="169.22" y="200.01" width="6.03" height="3.3" style="fill: #0084FF; transform-origin: 172.235px 201.66px; transform: rotate(180deg);" class="animable" id="elmumxvz6j0m8"></rect></g><g id="el78ugmcdn3wc"><rect x="169.22" y="195.73" width="6.03" height="3.3" style="fill: rgb(235, 235, 235); transform-origin: 172.235px 197.38px; transform: rotate(180deg);" class="animable" id="elet5qtmguulq"></rect></g><g id="el2knpyrwzip"><rect x="176.24" y="204.3" width="6.03" height="3.3" style="fill: rgb(235, 235, 235); transform-origin: 179.255px 205.95px; transform: rotate(180deg);" class="animable" id="el2kqmxqb0tly"></rect></g><g id="elcssz3c09kds"><rect x="176.24" y="200.01" width="6.03" height="3.3" style="fill: rgb(235, 235, 235); transform-origin: 179.255px 201.66px; transform: rotate(180deg);" class="animable" id="el019vi2cngwcg"></rect></g><g id="el2vnw4sihqv9"><rect x="176.24" y="195.73" width="6.03" height="3.3" style="fill: #0084FF; transform-origin: 179.255px 197.38px; transform: rotate(180deg);" class="animable" id="elpma4ebv6jhf"></rect></g><path d="M166.06,221.62H151.62a1.65,1.65,0,0,0-1.65,1.65h0a1.65,1.65,0,0,0,1.65,1.65h14.44a1.65,1.65,0,0,0,1.65-1.65h0A1.65,1.65,0,0,0,166.06,221.62Z" style="fill: rgb(235, 235, 235); transform-origin: 158.839989px 223.269989px;" id="elcsfv7b27pgm" class="animable"></path><g id="eldkn2x2y7tmf"><path d="M166.06,217.33H151.62A1.65,1.65,0,0,0,150,219h0a1.65,1.65,0,0,0,1.65,1.65h14.44a1.65,1.65,0,0,0,1.65-1.65h0A1.65,1.65,0,0,0,166.06,217.33Z" style="fill: #0084FF; opacity: 0.6; transform-origin: 158.869995px 218.989853px;" class="animable" id="el8pu12qlnd6v"></path></g><g id="el46drm0vd4ak"><path d="M166.06,213.05H151.62A1.65,1.65,0,0,0,150,214.7h0a1.65,1.65,0,0,0,1.65,1.65h14.44a1.65,1.65,0,0,0,1.65-1.65h0A1.65,1.65,0,0,0,166.06,213.05Z" style="fill: #0084FF; opacity: 0.6; transform-origin: 158.869995px 214.69986px;" class="animable" id="el5ch4j3y2zer"></path></g><g id="elgplfn2d8j7m"><rect x="169.22" y="221.62" width="6.03" height="3.3" style="fill: rgb(235, 235, 235); transform-origin: 172.235px 223.27px; transform: rotate(180deg);" class="animable" id="el7umiyqovf7t"></rect></g><g id="elgadl508phra"><rect x="169.22" y="217.33" width="6.03" height="3.3" style="fill: rgb(235, 235, 235); transform-origin: 172.235px 218.98px; transform: rotate(180deg);" class="animable" id="elhwrwl7r2zho"></rect></g><g id="eluo6p79sgqc"><rect x="169.22" y="213.05" width="6.03" height="3.3" style="fill: #0084FF; transform-origin: 172.235px 214.7px; transform: rotate(180deg);" class="animable" id="eljlgdta3ar4r"></rect></g><g id="el8zejotri0cb"><rect x="176.24" y="221.62" width="6.03" height="3.3" style="fill: rgb(235, 235, 235); transform-origin: 179.255px 223.27px; transform: rotate(180deg);" class="animable" id="elkcrq95n8t6m"></rect></g><g id="el1p3y81rch85"><rect x="176.24" y="217.33" width="6.03" height="3.3" style="fill: rgb(235, 235, 235); transform-origin: 179.255px 218.98px; transform: rotate(180deg);" class="animable" id="el4tzplmbckc"></rect></g><g id="eljz8rk0iz8kh"><rect x="176.24" y="213.05" width="6.03" height="3.3" style="fill: rgb(235, 235, 235); transform-origin: 179.255px 214.7px; transform: rotate(180deg);" class="animable" id="el38truimr34q"></rect></g><g id="elkejempl1qs"><path d="M166.06,238.94H151.62a1.65,1.65,0,0,0-1.65,1.65h0a1.65,1.65,0,0,0,1.65,1.65h14.44a1.65,1.65,0,0,0,1.65-1.65h0A1.65,1.65,0,0,0,166.06,238.94Z" style="fill: #0084FF; opacity: 0.6; transform-origin: 158.839989px 240.589989px;" class="animable" id="elu8oa7gk8v6"></path></g><g id="ellsgcczol2"><path d="M166.06,234.65H151.62A1.65,1.65,0,0,0,150,236.3h0a1.65,1.65,0,0,0,1.65,1.65h14.44a1.65,1.65,0,0,0,1.65-1.65h0A1.65,1.65,0,0,0,166.06,234.65Z" style="fill: #0084FF; opacity: 0.6; transform-origin: 158.869995px 236.299866px;" class="animable" id="elwfmfkxlay28"></path></g><g id="elna2f1rdtlkc"><path d="M166.06,230.37H151.62A1.65,1.65,0,0,0,150,232h0a1.65,1.65,0,0,0,1.65,1.65h14.44a1.65,1.65,0,0,0,1.65-1.65h0A1.65,1.65,0,0,0,166.06,230.37Z" style="fill: #0084FF; opacity: 0.6; transform-origin: 158.869995px 232.00985px;" class="animable" id="el2bzfs1mnem6"></path></g><g id="elitq5lci2qdj"><rect x="169.22" y="238.94" width="6.03" height="3.3" style="fill: rgb(235, 235, 235); transform-origin: 172.235px 240.59px; transform: rotate(180deg);" class="animable" id="elybkuiqvzge"></rect></g><g id="elpfxr9qv76b8"><rect x="169.22" y="234.65" width="6.03" height="3.3" style="fill: #0084FF; transform-origin: 172.235px 236.3px; transform: rotate(180deg);" class="animable" id="el2acufg8l0i4"></rect></g><g id="el0cgblaasfp86"><rect x="169.22" y="230.37" width="6.03" height="3.3" style="fill: rgb(235, 235, 235); transform-origin: 172.235px 232.02px; transform: rotate(180deg);" class="animable" id="elx63h73b5crm"></rect></g><g id="el7kouarcvcn"><rect x="176.24" y="238.94" width="6.03" height="3.3" style="fill: rgb(235, 235, 235); transform-origin: 179.255px 240.59px; transform: rotate(180deg);" class="animable" id="ellip6so2n9sd"></rect></g><g id="ela1tab1aqtp"><rect x="176.24" y="234.65" width="6.03" height="3.3" style="fill: rgb(235, 235, 235); transform-origin: 179.255px 236.3px; transform: rotate(180deg);" class="animable" id="el44pkymvzuon"></rect></g><g id="elkgjw28vxz9k"><rect x="176.24" y="230.37" width="6.03" height="3.3" style="fill: #0084FF; transform-origin: 179.255px 232.02px; transform: rotate(180deg);" class="animable" id="elj98gkz3p3sc"></rect></g><g id="el917t439gkbm"><path d="M166.06,256.26H151.62a1.65,1.65,0,0,0-1.65,1.65h0a1.65,1.65,0,0,0,1.65,1.65h14.44a1.65,1.65,0,0,0,1.65-1.65h0A1.65,1.65,0,0,0,166.06,256.26Z" style="fill: #0084FF; opacity: 0.6; transform-origin: 158.839989px 257.910004px;" class="animable" id="el72ig3g9d8kf"></path></g><g id="el70qowijbylb"><rect x="149.97" y="251.97" width="17.74" height="3.3" rx="1.65" style="fill: #0084FF; opacity: 0.6; transform-origin: 158.84px 253.62px;" class="animable" id="elgzryrovjia"></rect></g><g id="elrqzrts8jhqn"><path d="M166.06,247.69H151.62a1.64,1.64,0,0,0-1.65,1.64h0a1.65,1.65,0,0,0,1.65,1.65h14.44a1.65,1.65,0,0,0,1.65-1.65h0A1.64,1.64,0,0,0,166.06,247.69Z" style="fill: #0084FF; opacity: 0.6; transform-origin: 158.839996px 249.334976px;" class="animable" id="eld1roex9d6fo"></path></g><g id="el53ihog7naj2"><rect x="169.22" y="256.26" width="6.03" height="3.3" style="fill: rgb(235, 235, 235); transform-origin: 172.235px 257.91px; transform: rotate(180deg);" class="animable" id="eljubw9p9fhjc"></rect></g><g id="el8jtj44j1uxr"><rect x="169.22" y="251.97" width="6.03" height="3.3" style="fill: #0084FF; transform-origin: 172.235px 253.62px; transform: rotate(180deg);" class="animable" id="eld96lv51d5w5"></rect></g><g id="elfvbozrsadpt"><rect x="169.22" y="247.69" width="6.03" height="3.3" style="fill: rgb(235, 235, 235); transform-origin: 172.235px 249.34px; transform: rotate(180deg);" class="animable" id="elvkmbl7aslli"></rect></g><g id="el080ulei46qa"><rect x="176.24" y="256.26" width="6.03" height="3.3" style="fill: #0084FF; transform-origin: 179.255px 257.91px; transform: rotate(180deg);" class="animable" id="elrvstfi1b33a"></rect></g><g id="elsi7b24gfvy"><rect x="176.24" y="251.97" width="6.03" height="3.3" style="fill: rgb(235, 235, 235); transform-origin: 179.255px 253.62px; transform: rotate(180deg);" class="animable" id="el5qnsak36bs8"></rect></g><g id="el2xruutu9bga"><rect x="176.24" y="247.69" width="6.03" height="3.3" style="fill: #0084FF; transform-origin: 179.255px 249.34px; transform: rotate(180deg);" class="animable" id="eloqinpoqro8"></rect></g><g id="el79p6mdxwzec"><path d="M166.06,273.58H151.62a1.65,1.65,0,0,0-1.65,1.65h0a1.64,1.64,0,0,0,1.65,1.64h14.44a1.64,1.64,0,0,0,1.65-1.64h0A1.65,1.65,0,0,0,166.06,273.58Z" style="fill: #0084FF; opacity: 0.6; transform-origin: 158.839996px 275.224991px;" class="animable" id="elrtwiidoq7on"></path></g><g id="elpkp3ilgk7d9"><path d="M166.06,269.29H151.62a1.65,1.65,0,0,0-1.65,1.65h0a1.65,1.65,0,0,0,1.65,1.65h14.44a1.65,1.65,0,0,0,1.65-1.65h0A1.65,1.65,0,0,0,166.06,269.29Z" style="fill: #0084FF; opacity: 0.6; transform-origin: 158.839989px 270.940002px;" class="animable" id="el0cwp6kkc1g7"></path></g><g id="elr0fiytd7znd"><path d="M166.06,265H151.62a1.65,1.65,0,0,0-1.65,1.65h0a1.65,1.65,0,0,0,1.65,1.65h14.44a1.65,1.65,0,0,0,1.65-1.65h0A1.65,1.65,0,0,0,166.06,265Z" style="fill: #0084FF; opacity: 0.6; transform-origin: 158.839989px 266.649994px;" class="animable" id="el8n7ji5zekel"></path></g><g id="eli5o0x9whx0b"><rect x="169.22" y="273.58" width="6.03" height="3.3" style="fill: #0084FF; transform-origin: 172.235px 275.23px; transform: rotate(180deg);" class="animable" id="el3wxg3issni7"></rect></g><g id="el0e1dwwtt2qss"><rect x="169.22" y="269.29" width="6.03" height="3.3" style="fill: rgb(235, 235, 235); transform-origin: 172.235px 270.94px; transform: rotate(180deg);" class="animable" id="elkt5iqnwoz"></rect></g><g id="el9km9n7v6el"><rect x="169.22" y="265" width="6.03" height="3.3" style="fill: rgb(235, 235, 235); transform-origin: 172.235px 266.65px; transform: rotate(180deg);" class="animable" id="elz1lnr0u43ma"></rect></g><g id="elumb23l8cuje"><rect x="176.24" y="273.58" width="6.03" height="3.3" style="fill: rgb(235, 235, 235); transform-origin: 179.255px 275.23px; transform: rotate(180deg);" class="animable" id="ela43r4xsat79"></rect></g><g id="elzytj9ur45ij"><rect x="176.24" y="269.29" width="6.03" height="3.3" style="fill: rgb(235, 235, 235); transform-origin: 179.255px 270.94px; transform: rotate(180deg);" class="animable" id="el48nz5hcfc1x"></rect></g><g id="ellkoo4xrwzvl"><rect x="176.24" y="265" width="6.03" height="3.3" style="fill: #0084FF; transform-origin: 179.255px 266.65px; transform: rotate(180deg);" class="animable" id="elevo0bylkf9w"></rect></g><g id="elnjkwcpdz4p"><path d="M250.43,151.32h23.44a0,0,0,0,1,0,0V280a0,0,0,0,1,0,0H250.43a6.54,6.54,0,0,1-6.54-6.54V157.87A6.54,6.54,0,0,1,250.43,151.32Z" style="fill: rgb(224, 224, 224); transform-origin: 258.87999px 215.660004px; transform: rotate(180deg);" class="animable" id="elbnbe35pcbnc"></path></g><rect x="189.2" y="151.32" width="63.56" height="128.68" rx="6.54" style="fill: rgb(255, 255, 255); transform-origin: 220.98px 215.66px;" id="eltiiqn1nrr8" class="animable"></rect><rect x="189.2" y="253.31" width="63.56" height="1.2" style="fill: rgb(224, 224, 224); transform-origin: 220.98px 253.91px;" id="eljswm2e4jb7k" class="animable"></rect><rect x="189.2" y="227.82" width="63.56" height="1.19" style="fill: rgb(224, 224, 224); transform-origin: 220.98px 228.415px;" id="elc7ppechhm8s" class="animable"></rect><rect x="189.2" y="202.32" width="63.56" height="1.19" style="fill: rgb(224, 224, 224); transform-origin: 220.98px 202.915px;" id="eledelcg0tpu" class="animable"></rect><rect x="189.2" y="176.82" width="63.56" height="1.2" style="fill: rgb(224, 224, 224); transform-origin: 220.98px 177.42px;" id="elug1bqzm5azo" class="animable"></rect><g id="elzrj8w43j5z"><path d="M220.9,168.55H199.64a2.43,2.43,0,0,0-2.43,2.43h0a2.43,2.43,0,0,0,2.43,2.43H220.9a2.43,2.43,0,0,0,2.43-2.43h0A2.43,2.43,0,0,0,220.9,168.55Z" style="fill: #0084FF; opacity: 0.6; transform-origin: 210.269997px 170.980003px;" class="animable" id="eljsxlwo7tpx"></path></g><g id="elo56x8jfm8oc"><path d="M220.9,162.24H199.64a2.43,2.43,0,0,0-2.43,2.43h0a2.43,2.43,0,0,0,2.43,2.43H220.9a2.43,2.43,0,0,0,2.43-2.43h0A2.43,2.43,0,0,0,220.9,162.24Z" style="fill: #0084FF; opacity: 0.6; transform-origin: 210.269997px 164.669991px;" class="animable" id="elz919k6bcc5o"></path></g><g id="eldorpzauxj0v"><path d="M220.9,155.93H199.64a2.43,2.43,0,0,0-2.43,2.43h0a2.43,2.43,0,0,0,2.43,2.43H220.9a2.43,2.43,0,0,0,2.43-2.43h0A2.43,2.43,0,0,0,220.9,155.93Z" style="fill: #0084FF; opacity: 0.6; transform-origin: 210.269997px 158.359985px;" class="animable" id="el354ke3xz0sq"></path></g><g id="el4oyfes5kkhu"><rect x="225.56" y="168.55" width="8.88" height="4.86" style="fill: rgb(235, 235, 235); transform-origin: 230px 170.98px; transform: rotate(180deg);" class="animable" id="elziqd3vwp1ue"></rect></g><g id="eliw12pto0gi"><rect x="225.56" y="162.24" width="8.88" height="4.86" style="fill: #0084FF; transform-origin: 230px 164.67px; transform: rotate(180deg);" class="animable" id="elqpfl5yzlbcd"></rect></g><g id="elyx6p11e0xb"><rect x="225.56" y="155.93" width="8.88" height="4.86" style="fill: rgb(235, 235, 235); transform-origin: 230px 158.36px; transform: rotate(180deg);" class="animable" id="eli3lw9lil7aj"></rect></g><g id="elxm4r1gi9bhq"><rect x="235.89" y="168.55" width="8.88" height="4.86" style="fill: rgb(235, 235, 235); transform-origin: 240.33px 170.98px; transform: rotate(180deg);" class="animable" id="elp5o8qmjpb3"></rect></g><g id="elntzu7c0etda"><rect x="235.89" y="162.24" width="8.88" height="4.86" style="fill: rgb(235, 235, 235); transform-origin: 240.33px 164.67px; transform: rotate(180deg);" class="animable" id="el4vvzvjqjo3e"></rect></g><g id="el08saob24cohx"><rect x="235.89" y="155.93" width="8.88" height="4.86" style="fill: #0084FF; transform-origin: 240.33px 158.36px; transform: rotate(180deg);" class="animable" id="el0etbaupffafv"></rect></g><g id="elh2rabqpdcg"><path d="M220.9,194.05H199.64a2.43,2.43,0,0,0-2.43,2.43h0a2.43,2.43,0,0,0,2.43,2.43H220.9a2.43,2.43,0,0,0,2.43-2.43h0A2.43,2.43,0,0,0,220.9,194.05Z" style="fill: #0084FF; opacity: 0.6; transform-origin: 210.269997px 196.480003px;" class="animable" id="el8tct039f2or"></path></g><g id="elmyiqs8qijz"><path d="M220.9,187.74H199.64a2.43,2.43,0,0,0-2.43,2.43h0a2.43,2.43,0,0,0,2.43,2.43H220.9a2.43,2.43,0,0,0,2.43-2.43h0A2.43,2.43,0,0,0,220.9,187.74Z" style="fill: #0084FF; opacity: 0.6; transform-origin: 210.269997px 190.169998px;" class="animable" id="el9g2psne7jjl"></path></g><g id="ela952mr9rsau"><path d="M220.9,181.43H199.64a2.43,2.43,0,0,0-2.43,2.43h0a2.43,2.43,0,0,0,2.43,2.43H220.9a2.43,2.43,0,0,0,2.43-2.43h0A2.43,2.43,0,0,0,220.9,181.43Z" style="fill: #0084FF; opacity: 0.6; transform-origin: 210.269997px 183.859993px;" class="animable" id="elu7df9hj960l"></path></g><g id="elm3os9p4vp7"><rect x="225.56" y="194.05" width="8.88" height="4.86" style="fill: rgb(235, 235, 235); transform-origin: 230px 196.48px; transform: rotate(180deg);" class="animable" id="elb91exelgsdt"></rect></g><g id="elkgmp2hpdh1p"><rect x="225.56" y="187.74" width="8.88" height="4.86" style="fill: rgb(235, 235, 235); transform-origin: 230px 190.17px; transform: rotate(180deg);" class="animable" id="elh5xw8dnskq9"></rect></g><g id="elwaz72ahwzdd"><rect x="225.56" y="181.43" width="8.88" height="4.86" style="fill: #0084FF; transform-origin: 230px 183.86px; transform: rotate(180deg);" class="animable" id="elwzvyy4bbtuh"></rect></g><g id="elat6srfcnffk"><rect x="235.89" y="194.05" width="8.88" height="4.86" style="fill: #0084FF; transform-origin: 240.33px 196.48px; transform: rotate(180deg);" class="animable" id="elot26c8s912m"></rect></g><g id="elxrfyml4b8y"><rect x="235.89" y="187.74" width="8.88" height="4.86" style="fill: rgb(235, 235, 235); transform-origin: 240.33px 190.17px; transform: rotate(180deg);" class="animable" id="elnx77mopq35"></rect></g><g id="ellwp8eskc7ls"><rect x="235.89" y="181.43" width="8.88" height="4.86" style="fill: #0084FF; transform-origin: 240.33px 183.86px; transform: rotate(180deg);" class="animable" id="el4c0v3njyp1y"></rect></g><g id="elkaqia01izvq"><path d="M220.9,219.55H199.64a2.42,2.42,0,0,0-2.43,2.42h0a2.42,2.42,0,0,0,2.43,2.43H220.9a2.43,2.43,0,0,0,2.43-2.43h0A2.42,2.42,0,0,0,220.9,219.55Z" style="fill: #0084FF; opacity: 0.6; transform-origin: 210.269974px 221.974998px;" class="animable" id="elst4co0e1z6k"></path></g><g id="elqdhbxirwv6"><path d="M220.9,213.24H199.64a2.42,2.42,0,0,0-2.43,2.42h0a2.42,2.42,0,0,0,2.43,2.43H220.9a2.43,2.43,0,0,0,2.43-2.43h0A2.42,2.42,0,0,0,220.9,213.24Z" style="fill: #0084FF; opacity: 0.6; transform-origin: 210.269974px 215.665009px;" class="animable" id="elvldes6igiah"></path></g><g id="elhyoso87yl9n"><path d="M220.9,206.93H199.64a2.42,2.42,0,0,0-2.43,2.43h0a2.42,2.42,0,0,0,2.43,2.42H220.9a2.42,2.42,0,0,0,2.43-2.42h0A2.43,2.43,0,0,0,220.9,206.93Z" style="fill: #0084FF; opacity: 0.6; transform-origin: 210.269981px 209.354996px;" class="animable" id="elwjrvgjzc90i"></path></g><g id="eliugzavjeifo"><rect x="225.56" y="219.55" width="8.88" height="4.86" style="fill: #0084FF; transform-origin: 230px 221.98px; transform: rotate(180deg);" class="animable" id="elrd1p3fl5bt9"></rect></g><g id="el1elj3f88hep"><rect x="225.56" y="213.24" width="8.88" height="4.86" style="fill: rgb(235, 235, 235); transform-origin: 230px 215.67px; transform: rotate(180deg);" class="animable" id="elksc8fzd8u7h"></rect></g><g id="elq5z0r8wggu"><rect x="225.56" y="206.93" width="8.88" height="4.86" style="fill: rgb(235, 235, 235); transform-origin: 230px 209.36px; transform: rotate(180deg);" class="animable" id="els3cov25osee"></rect></g><g id="elq6bbwn33gwq"><rect x="235.89" y="219.55" width="8.88" height="4.86" style="fill: rgb(235, 235, 235); transform-origin: 240.33px 221.98px; transform: rotate(180deg);" class="animable" id="elgdaq3y6lx0l"></rect></g><g id="elbp2l4c3yozq"><rect x="235.89" y="213.24" width="8.88" height="4.86" style="fill: rgb(235, 235, 235); transform-origin: 240.33px 215.67px; transform: rotate(180deg);" class="animable" id="el3fmu018446x"></rect></g><g id="elgnkc72k5csg"><rect x="235.89" y="206.93" width="8.88" height="4.86" style="fill: #0084FF; transform-origin: 240.33px 209.36px; transform: rotate(180deg);" class="animable" id="ela31regkuhjg"></rect></g><g id="el7lz0sr20xqb"><path d="M220.9,245H199.64a2.43,2.43,0,0,0-2.43,2.43h0a2.43,2.43,0,0,0,2.43,2.43H220.9a2.43,2.43,0,0,0,2.43-2.43h0A2.43,2.43,0,0,0,220.9,245Z" style="fill: #0084FF; opacity: 0.6; transform-origin: 210.269997px 247.43px;" class="animable" id="elnxa7qellube"></path></g><path d="M220.9,238.73H199.64a2.43,2.43,0,0,0-2.43,2.43h0a2.43,2.43,0,0,0,2.43,2.43H220.9a2.43,2.43,0,0,0,2.43-2.43h0A2.43,2.43,0,0,0,220.9,238.73Z" style="fill: rgb(235, 235, 235); transform-origin: 210.269997px 241.159988px;" id="elrlq5moc1xmj" class="animable"></path><g id="el84caolmee7s"><path d="M220.9,232.42H199.64a2.43,2.43,0,0,0-2.43,2.43h0a2.43,2.43,0,0,0,2.43,2.43H220.9a2.43,2.43,0,0,0,2.43-2.43h0A2.43,2.43,0,0,0,220.9,232.42Z" style="fill: #0084FF; opacity: 0.6; transform-origin: 210.269997px 234.849998px;" class="animable" id="eltcbolamau1"></path></g><g id="ellq9onqc9iuj"><rect x="225.56" y="245.04" width="8.88" height="4.86" style="fill: rgb(235, 235, 235); transform-origin: 230px 247.47px; transform: rotate(180deg);" class="animable" id="elkzozxefsm6"></rect></g><g id="elw8n3wdcouw"><rect x="225.56" y="238.73" width="8.88" height="4.86" style="fill: #0084FF; transform-origin: 230px 241.16px; transform: rotate(180deg);" class="animable" id="el0xfq14j26mym"></rect></g><g id="elarbkof9ost"><rect x="225.56" y="232.42" width="8.88" height="4.86" style="fill: rgb(235, 235, 235); transform-origin: 230px 234.85px; transform: rotate(180deg);" class="animable" id="elxleelxnj2ec"></rect></g><g id="elqv3m49wg9rs"><rect x="235.89" y="245.04" width="8.88" height="4.86" style="fill: #0084FF; transform-origin: 240.33px 247.47px; transform: rotate(180deg);" class="animable" id="elk6zn1e7231q"></rect></g><g id="eluiw50tmm2og"><rect x="235.89" y="238.73" width="8.88" height="4.86" style="fill: #0084FF; transform-origin: 240.33px 241.16px; transform: rotate(180deg);" class="animable" id="elnyxeuok8iss"></rect></g><g id="elhvsmoszmxwa"><rect x="235.89" y="232.42" width="8.88" height="4.86" style="fill: rgb(235, 235, 235); transform-origin: 240.33px 234.85px; transform: rotate(180deg);" class="animable" id="el8keg4767g5i"></rect></g><g id="elsxpu4cosyf"><path d="M220.9,270.54H199.64a2.43,2.43,0,0,0-2.43,2.43h0a2.43,2.43,0,0,0,2.43,2.43H220.9a2.43,2.43,0,0,0,2.43-2.43h0A2.43,2.43,0,0,0,220.9,270.54Z" style="fill: #0084FF; opacity: 0.6; transform-origin: 210.269997px 272.970001px;" class="animable" id="el41f1p86z63a"></path></g><g id="elmivksio8jq"><path d="M220.9,264.23H199.64a2.43,2.43,0,0,0-2.43,2.43h0a2.43,2.43,0,0,0,2.43,2.43H220.9a2.43,2.43,0,0,0,2.43-2.43h0A2.43,2.43,0,0,0,220.9,264.23Z" style="fill: #0084FF; opacity: 0.6; transform-origin: 210.269997px 266.660004px;" class="animable" id="elt36jgnr1rwg"></path></g><g id="elra60k34q21c"><path d="M220.9,257.92H199.64a2.43,2.43,0,0,0-2.43,2.43h0a2.43,2.43,0,0,0,2.43,2.43H220.9a2.43,2.43,0,0,0,2.43-2.43h0A2.43,2.43,0,0,0,220.9,257.92Z" style="fill: #0084FF; opacity: 0.6; transform-origin: 210.269997px 260.350006px;" class="animable" id="el0s8kon7b4pea"></path></g><g id="elj287wshkql"><rect x="225.56" y="270.54" width="8.88" height="4.86" style="fill: rgb(235, 235, 235); transform-origin: 230px 272.97px; transform: rotate(180deg);" class="animable" id="el20jl9mfu4u8"></rect></g><g id="el6qvj93g8sc6"><rect x="225.56" y="264.23" width="8.88" height="4.86" style="fill: rgb(235, 235, 235); transform-origin: 230px 266.66px; transform: rotate(180deg);" class="animable" id="el3rx69kjkvcg"></rect></g><g id="elvd2mkwwd3km"><rect x="225.56" y="257.92" width="8.88" height="4.86" style="fill: rgb(235, 235, 235); transform-origin: 230px 260.35px; transform: rotate(180deg);" class="animable" id="eler9wo2s7xoq"></rect></g><g id="elzeegi83x5rc"><rect x="235.89" y="270.54" width="8.88" height="4.86" style="fill: rgb(235, 235, 235); transform-origin: 240.33px 272.97px; transform: rotate(180deg);" class="animable" id="el8y581dgvds"></rect></g><g id="el5hgh0a8t0nd"><rect x="235.89" y="264.23" width="8.88" height="4.86" style="fill: rgb(235, 235, 235); transform-origin: 240.33px 266.66px; transform: rotate(180deg);" class="animable" id="elqsekkjr9om9"></rect></g><g id="el3arsulv1g99"><rect x="235.89" y="257.92" width="8.88" height="4.86" style="fill: #0084FF; transform-origin: 240.33px 260.35px; transform: rotate(180deg);" class="animable" id="el7y21rqe3n8t"></rect></g><g id="elikkk986uztc"><path d="M307.9,168.08H328.3a0,0,0,0,1,0,0V280a0,0,0,0,1,0,0H307.9a5.69,5.69,0,0,1-5.69-5.69V173.78A5.69,5.69,0,0,1,307.9,168.08Z" style="fill: rgb(224, 224, 224); transform-origin: 315.25499px 224.040001px; transform: rotate(180deg);" class="animable" id="eldqezsy8a2zr"></path></g><rect x="254.65" y="168.08" width="55.28" height="111.92" rx="5.69" style="fill: rgb(255, 255, 255); transform-origin: 282.29px 224.04px;" id="el9j4aqjtw047" class="animable"></rect><rect x="254.65" y="256.79" width="55.28" height="1.04" style="fill: rgb(224, 224, 224); transform-origin: 282.29px 257.31px;" id="elcimh8xqt8tr" class="animable"></rect><rect x="254.65" y="234.61" width="55.28" height="1.04" style="fill: rgb(224, 224, 224); transform-origin: 282.29px 235.13px;" id="el6ykr6o3stij" class="animable"></rect><rect x="254.65" y="212.44" width="55.28" height="1.04" style="fill: rgb(224, 224, 224); transform-origin: 282.29px 212.96px;" id="el5d0uotsy9vq" class="animable"></rect><rect x="254.65" y="190.26" width="55.28" height="1.04" style="fill: rgb(224, 224, 224); transform-origin: 282.29px 190.78px;" id="el57agrddb2gx" class="animable"></rect><g id="elwag6kb0zvi7"><path d="M282.22,183.07h-18.5a2.11,2.11,0,0,0-2.11,2.11h0a2.11,2.11,0,0,0,2.11,2.11h18.5a2.11,2.11,0,0,0,2.11-2.11h0A2.11,2.11,0,0,0,282.22,183.07Z" style="fill: #0084FF; opacity: 0.6; transform-origin: 272.970001px 185.180008px;" class="animable" id="el9wyf09zx6ef"></path></g><g id="eleta38zi65r8"><path d="M282.22,177.58h-18.5a2.12,2.12,0,0,0-2.11,2.11h0a2.11,2.11,0,0,0,2.11,2.11h18.5a2.11,2.11,0,0,0,2.11-2.11h0A2.12,2.12,0,0,0,282.22,177.58Z" style="fill: #0084FF; opacity: 0.6; transform-origin: 272.969986px 179.689995px;" class="animable" id="eldt204zcv0yd"></path></g><g id="eldbtxk9fgmnl"><path d="M282.22,172.09h-18.5a2.12,2.12,0,0,0-2.11,2.11h0a2.12,2.12,0,0,0,2.11,2.12h18.5a2.12,2.12,0,0,0,2.11-2.12h0A2.12,2.12,0,0,0,282.22,172.09Z" style="fill: #0084FF; opacity: 0.6; transform-origin: 272.969986px 174.204994px;" class="animable" id="el6kl09xfnylf"></path></g><g id="el0i2ptmg7ra1c"><rect x="286.27" y="260.8" width="7.72" height="4.22" style="fill: rgb(235, 235, 235); transform-origin: 290.13px 262.91px; transform: rotate(180deg);" class="animable" id="elaiu2pd0hyft"></rect></g><g id="elk6uh0kpwere"><rect x="286.27" y="266.29" width="7.72" height="4.22" style="fill: #0084FF; transform-origin: 290.13px 268.4px; transform: rotate(180deg);" class="animable" id="el9kf39gkw3ot"></rect></g><g id="elhjxh4xheb6d"><rect x="286.27" y="271.77" width="7.72" height="4.22" style="fill: rgb(235, 235, 235); transform-origin: 290.13px 273.88px; transform: rotate(180deg);" class="animable" id="elpwhnepaylnj"></rect></g><g id="el2v44rvhx4w5"><rect x="295.25" y="260.8" width="7.72" height="4.22" style="fill: rgb(235, 235, 235); transform-origin: 299.11px 262.91px; transform: rotate(180deg);" class="animable" id="elr1kpzfinapp"></rect></g><g id="el8n6hcglmu4j"><rect x="295.25" y="266.29" width="7.72" height="4.22" style="fill: rgb(235, 235, 235); transform-origin: 299.11px 268.4px; transform: rotate(180deg);" class="animable" id="elc1200kazo1g"></rect></g><g id="elspoy7eq0x3r"><rect x="295.25" y="271.77" width="7.72" height="4.22" style="fill: #0084FF; transform-origin: 299.11px 273.88px; transform: rotate(180deg);" class="animable" id="el6hs2lco2dha"></rect></g><path d="M282.22,205.24h-18.5a2.12,2.12,0,0,0-2.11,2.12h0a2.12,2.12,0,0,0,2.11,2.11h18.5a2.12,2.12,0,0,0,2.11-2.11h0A2.12,2.12,0,0,0,282.22,205.24Z" style="fill: rgb(235, 235, 235); transform-origin: 272.970001px 207.355003px;" id="elds6lrvzmu75" class="animable"></path><g id="elwj15qndz84"><path d="M282.22,199.76h-18.5a2.11,2.11,0,0,0-2.11,2.11h0a2.12,2.12,0,0,0,2.11,2.11h18.5a2.12,2.12,0,0,0,2.11-2.11h0A2.11,2.11,0,0,0,282.22,199.76Z" style="fill: #0084FF; opacity: 0.6; transform-origin: 272.970001px 201.869995px;" class="animable" id="el79yf2sfboid"></path></g><g id="elcb1dvv9dk9k"><path d="M282.22,194.27h-18.5a2.11,2.11,0,0,0-2.11,2.11h0a2.11,2.11,0,0,0,2.11,2.11h18.5a2.11,2.11,0,0,0,2.11-2.11h0A2.11,2.11,0,0,0,282.22,194.27Z" style="fill: #0084FF; opacity: 0.6; transform-origin: 272.970001px 196.380005px;" class="animable" id="elpbihv5dcqp"></path></g><g id="ely8o0wzibn6"><rect x="286.27" y="238.62" width="7.72" height="4.22" style="fill: rgb(235, 235, 235); transform-origin: 290.13px 240.73px; transform: rotate(180deg);" class="animable" id="elnsn1ucboe1"></rect></g><g id="el5rbweb2fsv"><rect x="286.27" y="244.11" width="7.72" height="4.22" style="fill: rgb(235, 235, 235); transform-origin: 290.13px 246.22px; transform: rotate(180deg);" class="animable" id="elf3hj9oc7mkt"></rect></g><g id="el1qogy0aa5n2"><rect x="286.27" y="249.6" width="7.72" height="4.22" style="fill: #0084FF; transform-origin: 290.13px 251.71px; transform: rotate(180deg);" class="animable" id="el63iegio0jl6"></rect></g><g id="elpdkqcqwodp"><rect x="295.25" y="238.62" width="7.72" height="4.22" style="fill: #0084FF; transform-origin: 299.11px 240.73px; transform: rotate(180deg);" class="animable" id="elsboiyl0xoi"></rect></g><g id="el1429hh3yi22"><rect x="295.25" y="244.11" width="7.72" height="4.22" style="fill: rgb(235, 235, 235); transform-origin: 299.11px 246.22px; transform: rotate(180deg);" class="animable" id="elpmm8zdzgwci"></rect></g><g id="el3m297uqxp53"><rect x="295.25" y="249.6" width="7.72" height="4.22" style="fill: #0084FF; transform-origin: 299.11px 251.71px; transform: rotate(180deg);" class="animable" id="ellsw4zmk07xq"></rect></g><g id="elg0wqje261sf"><path d="M282.22,227.42h-18.5a2.12,2.12,0,0,0-2.11,2.11h0a2.11,2.11,0,0,0,2.11,2.11h18.5a2.11,2.11,0,0,0,2.11-2.11h0A2.12,2.12,0,0,0,282.22,227.42Z" style="fill: #0084FF; opacity: 0.6; transform-origin: 272.969986px 229.529999px;" class="animable" id="eljeaoa8emluq"></path></g><g id="elwrb9ph5hrg"><path d="M282.22,221.93h-18.5a2.12,2.12,0,0,0-2.11,2.11h0a2.12,2.12,0,0,0,2.11,2.12h18.5a2.12,2.12,0,0,0,2.11-2.12h0A2.12,2.12,0,0,0,282.22,221.93Z" style="fill: #0084FF; opacity: 0.6; transform-origin: 272.969986px 224.044983px;" class="animable" id="eli4yox8tgwge"></path></g><g id="el9o925jdes9r"><path d="M282.22,216.45h-18.5a2.11,2.11,0,0,0-2.11,2.11h0a2.12,2.12,0,0,0,2.11,2.11h18.5a2.12,2.12,0,0,0,2.11-2.11h0A2.11,2.11,0,0,0,282.22,216.45Z" style="fill: #0084FF; opacity: 0.6; transform-origin: 272.970001px 218.559998px;" class="animable" id="eldigojzjxvwd"></path></g><g id="elz3pnmij4g1f"><rect x="286.27" y="216.45" width="7.72" height="4.22" style="fill: #0084FF; transform-origin: 290.13px 218.56px; transform: rotate(180deg);" class="animable" id="el08bvn8tpcey6"></rect></g><g id="el9870pt5wznp"><rect x="286.27" y="221.93" width="7.72" height="4.22" style="fill: rgb(235, 235, 235); transform-origin: 290.13px 224.04px; transform: rotate(180deg);" class="animable" id="el880jevswrxk"></rect></g><g id="elovtjp9mjo0o"><rect x="286.27" y="227.42" width="7.72" height="4.22" style="fill: rgb(235, 235, 235); transform-origin: 290.13px 229.53px; transform: rotate(180deg);" class="animable" id="elfvs6ch2xr1s"></rect></g><g id="eldfphvvusyz6"><rect x="295.25" y="216.45" width="7.72" height="4.22" style="fill: rgb(235, 235, 235); transform-origin: 299.11px 218.56px; transform: rotate(180deg);" class="animable" id="elh50sko3f9hr"></rect></g><g id="eli74dwziunrr"><rect x="295.25" y="221.93" width="7.72" height="4.22" style="fill: rgb(235, 235, 235); transform-origin: 299.11px 224.04px; transform: rotate(180deg);" class="animable" id="elr6dvk8hemxn"></rect></g><g id="elbtq63b0l5km"><rect x="295.25" y="227.42" width="7.72" height="4.22" style="fill: #0084FF; transform-origin: 299.11px 229.53px; transform: rotate(180deg);" class="animable" id="el1z4dmlnk61t"></rect></g><g id="elq7cnl6r9uhf"><path d="M282.22,249.6h-18.5a2.11,2.11,0,0,0-2.11,2.11h0a2.12,2.12,0,0,0,2.11,2.11h18.5a2.12,2.12,0,0,0,2.11-2.11h0A2.11,2.11,0,0,0,282.22,249.6Z" style="fill: #0084FF; opacity: 0.6; transform-origin: 272.970001px 251.710007px;" class="animable" id="el85on2gnhiab"></path></g><g id="elf721laakupj"><path d="M282.22,244.11h-18.5a2.11,2.11,0,0,0-2.11,2.11h0a2.11,2.11,0,0,0,2.11,2.11h18.5a2.11,2.11,0,0,0,2.11-2.11h0A2.11,2.11,0,0,0,282.22,244.11Z" style="fill: #0084FF; opacity: 0.6; transform-origin: 272.970001px 246.220001px;" class="animable" id="elac6djho6brr"></path></g><g id="elaxkbip2qf37"><path d="M282.22,238.62h-18.5a2.12,2.12,0,0,0-2.11,2.11h0a2.12,2.12,0,0,0,2.11,2.12h18.5a2.12,2.12,0,0,0,2.11-2.12h0A2.12,2.12,0,0,0,282.22,238.62Z" style="fill: #0084FF; opacity: 0.6; transform-origin: 272.969986px 240.734985px;" class="animable" id="el7s5tlcthfay"></path></g><g id="el22c2tpw2fid"><rect x="286.27" y="194.27" width="7.72" height="4.22" style="fill: rgb(235, 235, 235); transform-origin: 290.13px 196.38px; transform: rotate(180deg);" class="animable" id="el113tquk13wj"></rect></g><g id="elp86wm4v6cv"><rect x="286.27" y="199.76" width="7.72" height="4.22" style="fill: #0084FF; transform-origin: 290.13px 201.87px; transform: rotate(180deg);" class="animable" id="elfmp4opz0k4q"></rect></g><g id="elhgqojs4btdb"><rect x="286.27" y="205.24" width="7.72" height="4.22" style="fill: rgb(235, 235, 235); transform-origin: 290.13px 207.35px; transform: rotate(180deg);" class="animable" id="elz3lo6qs7gt9"></rect></g><g id="el62x4jvvmga9"><rect x="295.25" y="194.27" width="7.72" height="4.22" style="fill: #0084FF; transform-origin: 299.11px 196.38px; transform: rotate(180deg);" class="animable" id="elo0b4m5zdxo"></rect></g><g id="elmoun9zwxiy"><rect x="295.25" y="199.76" width="7.72" height="4.22" style="fill: rgb(235, 235, 235); transform-origin: 299.11px 201.87px; transform: rotate(180deg);" class="animable" id="eleyt9qepk2m7"></rect></g><g id="elqcmz52oh3ba"><rect x="295.25" y="205.24" width="7.72" height="4.22" style="fill: rgb(235, 235, 235); transform-origin: 299.11px 207.35px; transform: rotate(180deg);" class="animable" id="elekdsgsypivh"></rect></g><g id="el3urjh0rq42k"><path d="M282.22,271.77h-18.5a2.12,2.12,0,0,0-2.11,2.11h0a2.12,2.12,0,0,0,2.11,2.12h18.5a2.12,2.12,0,0,0,2.11-2.12h0A2.12,2.12,0,0,0,282.22,271.77Z" style="fill: #0084FF; opacity: 0.6; transform-origin: 272.969986px 273.884979px;" class="animable" id="el62ydj5jmjjq"></path></g><g id="elxg1sw5y1mxc"><path d="M282.22,266.29h-18.5a2.11,2.11,0,0,0-2.11,2.11h0a2.12,2.12,0,0,0,2.11,2.11h18.5a2.12,2.12,0,0,0,2.11-2.11h0A2.11,2.11,0,0,0,282.22,266.29Z" style="fill: #0084FF; opacity: 0.6; transform-origin: 272.970001px 268.399994px;" class="animable" id="elmzx6z1nk8jb"></path></g><g id="elemhmbwsy7q"><rect x="261.61" y="260.8" width="22.72" height="4.22" rx="2.11" style="fill: #0084FF; opacity: 0.6; transform-origin: 272.97px 262.91px;" class="animable" id="el01jafl80nd4"></rect></g><g id="el68d43x8ls3j"><rect x="286.27" y="172.09" width="7.72" height="4.22" style="fill: #0084FF; transform-origin: 290.13px 174.2px; transform: rotate(180deg);" class="animable" id="elhysyi939o3"></rect></g><g id="el601wv7jo0ms"><rect x="286.27" y="177.58" width="7.72" height="4.22" style="fill: rgb(235, 235, 235); transform-origin: 290.13px 179.69px; transform: rotate(180deg);" class="animable" id="elk610ss0x12h"></rect></g><g id="elqsb2eb11qy8"><rect x="286.27" y="183.07" width="7.72" height="4.22" style="fill: rgb(235, 235, 235); transform-origin: 290.13px 185.18px; transform: rotate(180deg);" class="animable" id="elrfaxrn6keui"></rect></g><g id="eljteb0dbrc2h"><rect x="295.25" y="172.09" width="7.72" height="4.22" style="fill: rgb(235, 235, 235); transform-origin: 299.11px 174.2px; transform: rotate(180deg);" class="animable" id="elf5xsasb81z"></rect></g><g id="el01i1tc91y0y6"><rect x="295.25" y="177.58" width="7.72" height="4.22" style="fill: rgb(235, 235, 235); transform-origin: 299.11px 179.69px; transform: rotate(180deg);" class="animable" id="elk48la69tijg"></rect></g><g id="elv0q8rdndcf"><rect x="295.25" y="183.07" width="7.72" height="4.22" style="fill: #0084FF; transform-origin: 299.11px 185.18px; transform: rotate(180deg);" class="animable" id="eltdgq1ec9ei9"></rect></g></g><defs><clipPath id="freepik--clip-path--inject-104"><path d="M354.38,195.51A59.93,59.93,0,0,0,272,140.45a72.41,72.41,0,0,0-135.76,16A62.32,62.32,0,0,0,140.33,281H338.65a44.18,44.18,0,0,0,15.73-85.47Z" style="fill:none"></path></clipPath></defs><defs>     <filter id="active" height="200%">         <feMorphology in="SourceAlpha" result="DILATED" operator="dilate" radius="2"></feMorphology>                <feFlood flood-color="#32DFEC" flood-opacity="1" result="PINK"></feFlood>        <feComposite in="PINK" in2="DILATED" operator="in" result="OUTLINE"></feComposite>        <feMerge>            <feMergeNode in="OUTLINE"></feMergeNode>            <feMergeNode in="SourceGraphic"></feMergeNode>        </feMerge>    </filter>    <filter id="hover" height="200%">        <feMorphology in="SourceAlpha" result="DILATED" operator="dilate" radius="2"></feMorphology>                <feFlood flood-color="#ff0000" flood-opacity="0.5" result="PINK"></feFlood>        <feComposite in="PINK" in2="DILATED" operator="in" result="OUTLINE"></feComposite>        <feMerge>            <feMergeNode in="OUTLINE"></feMergeNode>            <feMergeNode in="SourceGraphic"></feMergeNode>        </feMerge>            <feColorMatrix type="matrix" values="0   0   0   0   0                0   1   0   0   0                0   0   0   0   0                0   0   0   1   0 "></feColorMatrix>    </filter></defs></svg>